<svg xmlns="http://www.w3.org/2000/svg" width="315" height="68" viewBox="0 0 315 68" fill="none"><path d="M84.44 25.7702V33.6502H96.95V37.7202H84.44V47.6402H79.63V21.7402H98.54V25.7702H84.44Z" fill="#2A5761"></path><path d="M118.89 41.6402H105.94L103.39 47.6302H98.43L110.09 21.7302H114.83L126.52 47.6302H121.49L118.89 41.6402ZM117.3 37.8702L112.42 26.5502L107.57 37.8702H117.3Z" fill="#2A5761"></path><path d="M146.75 47.6402L141.46 40.0502C141.24 40.0702 140.9 40.0902 140.46 40.0902H134.61V47.6402H129.8V21.7402H140.46C142.7 21.7402 144.66 22.1102 146.33 22.8502C148 23.5902 149.27 24.6502 150.16 26.0302C151.05 27.4102 151.49 29.0502 151.49 30.9502C151.49 32.9002 151.01 34.5802 150.07 35.9802C149.13 37.3802 147.76 38.4402 145.98 39.1302L151.94 47.6402H146.75ZM145.02 27.1402C143.93 26.2502 142.34 25.8102 140.25 25.8102H134.63V36.1302H140.25C142.35 36.1302 143.94 35.6802 145.02 34.7802C146.1 33.8802 146.65 32.6002 146.65 30.9502C146.65 29.3002 146.1 28.0302 145.02 27.1402Z" fill="#2A5761"></path><path d="M173.8 47.6402L168.51 40.0502C168.29 40.0702 167.95 40.0902 167.51 40.0902H161.66V47.6402H156.85V21.7402H167.51C169.75 21.7402 171.71 22.1102 173.38 22.8502C175.05 23.5902 176.32 24.6502 177.21 26.0302C178.1 27.4102 178.54 29.0502 178.54 30.9502C178.54 32.9002 178.07 34.5802 177.12 35.9802C176.17 37.3902 174.81 38.4402 173.03 39.1302L178.99 47.6402H173.8ZM172.06 27.1402C170.97 26.2502 169.38 25.8102 167.29 25.8102H161.67V36.1302H167.29C169.39 36.1302 170.98 35.6802 172.06 34.7802C173.14 33.8802 173.69 32.6002 173.69 30.9502C173.69 29.3002 173.15 28.0302 172.06 27.1402Z" fill="#2A5761"></path><path d="M188.86 46.2901C186.74 45.1401 185.07 43.5501 183.86 41.5201C182.65 39.4801 182.05 37.2101 182.05 34.6901C182.05 32.1701 182.65 29.9001 183.86 27.8601C185.07 25.8201 186.73 24.2301 188.86 23.0901C190.98 21.9401 193.36 21.3701 196 21.3701C198.64 21.3701 201.02 21.9401 203.14 23.0901C205.26 24.2401 206.93 25.8201 208.14 27.8401C209.35 29.8601 209.95 32.1501 209.95 34.6901C209.95 37.2301 209.34 39.5101 208.14 41.5401C206.93 43.5601 205.27 45.1501 203.14 46.2901C201.02 47.4401 198.64 48.0101 196 48.0101C193.36 48.0101 190.99 47.4401 188.86 46.2901ZM200.67 42.6301C202.05 41.8501 203.14 40.7701 203.93 39.3701C204.72 37.9801 205.11 36.4201 205.11 34.6901C205.11 32.9601 204.71 31.4001 203.93 30.0101C203.14 28.6201 202.05 27.5301 200.67 26.7501C199.29 25.9701 197.73 25.5801 196.01 25.5801C194.29 25.5801 192.73 25.9701 191.35 26.7501C189.97 27.5301 188.88 28.6101 188.09 30.0101C187.3 31.4001 186.91 32.9601 186.91 34.6901C186.91 36.4201 187.3 37.9801 188.09 39.3701C188.88 40.7601 189.96 41.8501 191.35 42.6301C192.73 43.4101 194.29 43.8001 196.01 43.8001C197.73 43.8001 199.29 43.4001 200.67 42.6301Z" fill="#2A5761"></path><path d="M245.03 48.0502L241.77 44.9002C239.35 46.9702 236.45 48.0102 233.07 48.0102C231.27 48.0102 229.65 47.7102 228.22 47.1202C226.79 46.5302 225.67 45.7102 224.85 44.6602C224.04 43.6102 223.63 42.4202 223.63 41.0902C223.63 39.4902 224.1 38.0702 225.04 36.8502C225.98 35.6302 227.51 34.4302 229.63 33.2402C228.59 32.2002 227.85 31.2402 227.41 30.3402C226.97 29.4402 226.74 28.5102 226.74 27.5502C226.74 25.7202 227.42 24.2502 228.79 23.1302C230.16 22.0102 231.98 21.4502 234.25 21.4502C236.35 21.4502 238.02 21.9602 239.28 22.9902C240.54 24.0102 241.17 25.4002 241.17 27.1502C241.17 28.4802 240.76 29.6702 239.93 30.7002C239.1 31.7402 237.75 32.7802 235.88 33.8502L241.47 39.1802C242.09 37.9702 242.57 36.5202 242.91 34.8102L246.65 36.0302C246.16 38.3202 245.38 40.3002 244.32 41.9502L247.58 45.0602L245.03 48.0502ZM239.04 42.2702L232.19 35.7202C230.71 36.5302 229.67 37.3202 229.06 38.0702C228.45 38.8202 228.15 39.6702 228.15 40.6002C228.15 41.6902 228.63 42.5602 229.59 43.2302C230.55 43.9002 231.82 44.2302 233.4 44.2302C235.56 44.2402 237.43 43.5802 239.04 42.2702ZM231.86 25.4902C231.27 26.0002 230.97 26.6602 230.97 27.4702C230.97 28.0602 231.13 28.6202 231.45 29.1502C231.77 29.6802 232.39 30.4002 233.3 31.3102C234.78 30.5002 235.81 29.7902 236.39 29.1802C236.97 28.5702 237.26 27.9202 237.26 27.2002C237.26 26.4402 236.99 25.8302 236.46 25.3902C235.93 24.9502 235.2 24.7202 234.26 24.7202C233.25 24.7302 232.45 24.9902 231.86 25.4902Z" fill="#2A5761"></path><path d="M266.85 46.2901C264.74 45.1401 263.09 43.5601 261.89 41.5401C260.69 39.5201 260.1 37.2401 260.1 34.6901C260.1 32.1501 260.7 29.8701 261.91 27.8401C263.12 25.8201 264.78 24.2301 266.89 23.0901C269 21.9401 271.36 21.3701 273.98 21.3701C276.1 21.3701 278.04 21.7401 279.79 22.4801C281.54 23.2201 283.02 24.2901 284.23 25.7001L281.12 28.6201C279.24 26.6001 276.94 25.5901 274.2 25.5901C272.42 25.5901 270.83 25.9801 269.43 26.7601C268.02 27.5401 266.93 28.6201 266.14 30.0001C265.35 31.3801 264.96 32.9501 264.96 34.7001C264.96 36.4501 265.35 38.0201 266.14 39.4001C266.93 40.7801 268.03 41.8601 269.43 42.6401C270.84 43.4201 272.43 43.8101 274.2 43.8101C276.94 43.8101 279.24 42.7901 281.12 40.7401L284.23 43.7001C283.02 45.1101 281.53 46.1801 279.77 46.9201C278.01 47.6601 276.06 48.0301 273.94 48.0301C271.32 48.0101 268.95 47.4401 266.85 46.2901Z" fill="#2A5761"></path><path d="M293.25 46.2901C291.13 45.1401 289.46 43.5501 288.25 41.5201C287.04 39.4801 286.44 37.2101 286.44 34.6901C286.44 32.1701 287.04 29.9001 288.25 27.8601C289.46 25.8201 291.12 24.2301 293.25 23.0901C295.37 21.9401 297.75 21.3701 300.39 21.3701C303.03 21.3701 305.41 21.9401 307.53 23.0901C309.65 24.2401 311.32 25.8201 312.53 27.8401C313.74 29.8601 314.34 32.1501 314.34 34.6901C314.34 37.2301 313.73 39.5101 312.53 41.5401C311.32 43.5601 309.66 45.1501 307.53 46.2901C305.41 47.4401 303.03 48.0101 300.39 48.0101C297.75 48.0101 295.37 47.4401 293.25 46.2901ZM305.05 42.6301C306.43 41.8501 307.52 40.7701 308.31 39.3701C309.1 37.9801 309.49 36.4201 309.49 34.6901C309.49 32.9601 309.09 31.4001 308.31 30.0101C307.52 28.6201 306.43 27.5301 305.05 26.7501C303.67 25.9701 302.11 25.5801 300.39 25.5801C298.67 25.5801 297.11 25.9701 295.73 26.7501C294.35 27.5301 293.26 28.6101 292.47 30.0101C291.68 31.4001 291.29 32.9601 291.29 34.6901C291.29 36.4201 291.68 37.9801 292.47 39.3701C293.26 40.7601 294.34 41.8501 295.73 42.6301C297.11 43.4101 298.67 43.8001 300.39 43.8001C302.11 43.8001 303.67 43.4001 305.05 42.6301Z" fill="#2A5761"></path><path d="M34.32 18.8401H24.88V9.40009C24.88 4.67009 28.71 0.840088 33.44 0.840088H42.88V10.2801C42.89 15.0101 39.05 18.8401 34.32 18.8401Z" fill="#2A5761"></path><path d="M59.07 18.8401H49.63V9.40009C49.63 4.67009 53.46 0.840088 58.19 0.840088H67.63V10.2801C67.64 15.0101 63.8 18.8401 59.07 18.8401Z" fill="#2A5761"></path><path d="M9.57 18.8401H0.130005V9.40009C0.130005 4.67009 3.96 0.840088 8.69 0.840088H18.13V10.2801C18.14 15.0101 14.3 18.8401 9.57 18.8401Z" fill="#2A5761"></path><path d="M34.32 43.3901H24.88V33.9501C24.88 29.2201 28.71 25.3901 33.44 25.3901H42.88V34.8301C42.89 39.5601 39.05 43.3901 34.32 43.3901Z" fill="#2A5761"></path><path d="M9.57 43.3901H0.130005V33.9501C0.130005 29.2201 3.96 25.3901 8.69 25.3901H18.13V34.8301C18.14 39.5601 14.3 43.3901 9.57 43.3901Z" fill="#2A5761"></path><path d="M9.57 67.9402H0.130005V58.5002C0.130005 53.7702 3.96 49.9402 8.69 49.9402H18.13V59.3802C18.14 64.1102 14.3 67.9402 9.57 67.9402Z" fill="#2A5761"></path></svg>