<svg width="305" height="23" viewBox="0 0 305 23" fill="none" xmlns="http://www.w3.org/2000/svg">
<g clip-path="url(#clip0_1_2177)">
<path d="M0.251953 11.5031C0.251953 8.38939 1.25424 5.76916 3.25882 3.64249C5.33461 1.45476 7.98534 0.360894 11.211 0.360894C12.5033 0.360894 13.7905 0.605108 15.0726 1.09353C16.3547 1.57178 17.1535 1.8109 17.4689 1.8109C17.8047 1.8109 18.0744 1.69389 18.2779 1.45985C18.4814 1.22581 18.6493 0.869667 18.7815 0.39142H19.6516V7.70253H18.8579C18.1049 6.11515 17.3366 4.86353 16.5531 3.94776C15.0878 2.25863 13.4292 1.41406 11.5773 1.41406C9.56255 1.41406 8.09216 2.28915 7.16622 4.03934C6.24023 5.78952 5.77724 8.25198 5.77724 11.4267C5.77724 14.0317 6.20464 16.3568 7.05936 18.4021C7.9243 20.4372 9.588 21.4547 12.0505 21.4547C13.3834 21.4547 14.2789 21.1749 14.7368 20.6152C15.0013 20.2998 15.1336 19.8215 15.1336 19.1805V15.8836C15.1336 14.9373 14.8436 14.3166 14.2636 14.0215C13.8871 13.8383 13.1239 13.7366 11.9741 13.7163V12.9225H22.6889V13.7163C21.6104 13.7569 20.893 13.9757 20.5368 14.3726C20.1908 14.7592 20.0179 15.4919 20.0179 16.5705V20.5542C19.3259 20.9816 18.2066 21.4089 16.6599 21.8363C15.1133 22.2637 13.3834 22.4773 11.4704 22.4773C8.00062 22.4773 5.22779 21.3835 3.15197 19.1958C1.21863 17.1505 0.251953 14.5862 0.251953 11.5031ZM24.1638 21.1342C24.7133 21.0019 25.1 20.8289 25.3238 20.6152C25.5579 20.3914 25.6749 19.9335 25.6749 19.2415V3.32197C25.6749 2.66056 25.568 2.2281 25.3544 2.02459C25.1407 1.82108 24.7438 1.65318 24.1638 1.5209V0.757737H30.086V19.2415C30.086 19.9335 30.1979 20.3863 30.4217 20.6C30.6456 20.8136 31.0424 20.9917 31.6123 21.1342V21.8821H24.1638V21.1342ZM33.2703 14.7236C33.2703 12.546 33.9368 10.7297 35.2698 9.27464C36.613 7.81953 38.297 7.092 40.3219 7.092C42.3876 7.092 44.0767 7.8348 45.3895 9.32042C46.7122 10.806 47.3736 12.6071 47.3736 14.7236C47.3736 16.8096 46.7225 18.6056 45.4199 20.1116C44.1174 21.6074 42.4181 22.3553 40.3219 22.3553C38.2868 22.3553 36.6028 21.6277 35.2698 20.1726C33.9368 18.7073 33.2703 16.891 33.2703 14.7236ZM37.8645 14.7236C37.8645 16.9113 37.9765 18.4428 38.2003 19.3179C38.5565 20.6712 39.2637 21.3479 40.3219 21.3479C41.3293 21.3479 41.9907 20.8289 42.3061 19.791C42.6216 18.7531 42.7793 17.064 42.7793 14.7236C42.7793 12.3934 42.6114 10.7094 42.2756 9.67146C41.95 8.62338 41.3038 8.09935 40.3372 8.09935C39.2789 8.09935 38.5718 8.77602 38.2156 10.1294C37.9816 11.035 37.8645 12.5664 37.8645 14.7236ZM55.0146 18.8447C55.0553 19.4145 55.1674 19.8826 55.3505 20.2489C55.7171 20.9612 56.3275 21.3174 57.1822 21.3174C58.2504 21.3174 59.0038 20.7526 59.4409 19.6231C59.8888 18.4936 60.1126 16.8961 60.1126 14.8305C60.1126 13.1922 59.9143 11.7829 59.5173 10.6025C59.1306 9.42219 58.3674 8.83202 57.2278 8.83202C56.5562 8.83202 56.0172 9.08129 55.6099 9.57991C55.2134 10.0683 55.0146 10.4194 55.0146 10.6331V18.8447ZM55.0146 0.757737V8.86252C55.5032 8.3843 55.956 8.02303 56.3731 7.77885C57.1362 7.34131 57.9606 7.1225 58.8457 7.1225C60.606 7.1225 62.0207 7.80935 63.0889 9.18306C64.1678 10.5568 64.7068 12.2459 64.7068 14.2505C64.7068 16.835 64.02 18.8295 62.6463 20.2337C61.283 21.6277 59.5834 22.3247 57.5484 22.3247C56.7142 22.3247 55.9765 22.1619 55.3353 21.8363C54.6945 21.5107 54.0938 21.0833 53.5343 20.5542L51.0769 22.3247H50.6343V3.32197C50.6343 2.67073 50.5173 2.23319 50.2833 2.00933C50.0489 1.77529 49.6117 1.61248 48.9705 1.5209V0.757737H55.0146ZM72.9127 20.0963C73.4218 20.0963 73.8947 19.9437 74.3324 19.6384C74.5766 19.4552 74.8664 19.1703 75.2022 18.7836V14.2199C74.3681 14.4234 73.6353 14.744 73.0043 15.1815C71.9361 15.9243 71.402 16.8707 71.402 18.0205C71.402 18.7022 71.5543 19.2212 71.8598 19.5773C72.175 19.9233 72.526 20.0963 72.9127 20.0963ZM66.8534 18.9668C66.8534 17.5626 67.5299 16.4484 68.8834 15.6241C70.237 14.7999 72.3586 13.9706 75.2482 13.1362V10.862C75.2482 9.93604 75.05 9.25428 74.653 8.81674C74.2663 8.36902 73.5741 8.14516 72.5769 8.14516C72.0174 8.14516 71.5543 8.25198 71.1881 8.4657C70.8322 8.6692 70.654 8.92865 70.654 9.2441C70.654 9.36623 70.6741 9.46796 70.7148 9.54937C70.7559 9.63078 70.8166 9.71727 70.8983 9.80886L71.0814 10.0225C71.2239 10.1955 71.3355 10.3889 71.4172 10.6025C71.5088 10.806 71.5543 11.0248 71.5543 11.2588C71.5543 11.8491 71.356 12.3069 70.959 12.6325C70.5723 12.948 70.1195 13.1057 69.6006 13.1057C69.0004 13.1057 68.4864 12.9276 68.0591 12.5715C67.642 12.2154 67.4335 11.7015 67.4335 11.0299C67.4335 9.82918 67.9984 8.87779 69.1277 8.17566C70.2571 7.47358 71.6459 7.1225 73.2945 7.1225C75.0652 7.1225 76.5455 7.4634 77.736 8.14516C78.9163 8.83711 79.5066 10.109 79.5066 11.961V19.5315C79.5066 19.7554 79.5625 19.9488 79.6745 20.1116C79.7964 20.2642 79.9291 20.3405 80.0715 20.3405C80.1934 20.3405 80.3002 20.3202 80.3917 20.2794C80.4935 20.2286 80.6463 20.1014 80.8499 19.8978L81.3228 20.5542C80.7123 21.2665 80.0358 21.7651 79.2927 22.05C78.8247 22.2331 78.3313 22.3247 77.8124 22.3247C76.8862 22.3247 76.2097 22.0551 75.7823 21.5158C75.5381 21.2105 75.3603 20.7577 75.2482 20.1573C74.3833 21.0222 73.4066 21.6328 72.3175 21.9889C71.6561 22.2128 71.005 22.3247 70.3638 22.3247C69.5091 22.3247 68.7106 22.0551 67.9675 21.5158C67.2249 20.9663 66.8534 20.1166 66.8534 18.9668ZM82.4164 21.1342C82.9657 21.0019 83.3524 20.8289 83.5761 20.6152C83.8101 20.3914 83.9271 19.9335 83.9271 19.2415V3.32197C83.9271 2.66056 83.8204 2.2281 83.6069 2.02459C83.393 1.82108 82.996 1.65318 82.4164 1.5209V0.757737H88.3382V19.2415C88.3382 19.9335 88.4503 20.3863 88.674 20.6C88.8982 20.8136 89.2948 20.9917 89.8646 21.1342V21.8821H82.4164V21.1342ZM99.9577 14.5862H100.858C101.367 16.9164 102.186 18.6107 103.315 19.6689C104.455 20.7271 105.758 21.2563 107.223 21.2563C108.648 21.2563 109.66 20.8951 110.26 20.1726C110.861 19.4399 111.161 18.6717 111.161 17.8678C111.161 16.9317 110.845 16.1685 110.215 15.5784C109.797 15.1917 108.958 14.688 107.696 14.0673L105.666 13.0599C103.651 12.0627 102.232 11.0757 101.408 10.0989C100.583 9.12201 100.171 7.91621 100.171 6.48146C100.171 4.95512 100.716 3.53056 101.805 2.20775C102.904 0.884931 104.582 0.223524 106.841 0.223524C107.991 0.223524 109.1 0.396508 110.169 0.742474C111.247 1.08844 111.863 1.26142 112.016 1.26142C112.362 1.26142 112.601 1.16476 112.733 0.971425C112.865 0.767914 112.972 0.50335 113.054 0.177734H113.985V6.98514H113.115C112.698 5.40793 111.959 4.04951 110.902 2.90986C109.853 1.7702 108.576 1.20037 107.071 1.20037C106.012 1.20037 105.173 1.49038 104.552 2.07038C103.941 2.64021 103.636 3.33723 103.636 4.16144C103.636 5.14848 103.926 5.8862 104.506 6.3746C105.076 6.87323 106.343 7.60585 108.307 8.57252L110.657 9.73255C111.705 10.2515 112.54 10.8264 113.16 11.4573C114.32 12.6376 114.9 14.0724 114.9 15.7615C114.9 17.3387 114.274 18.8295 113.023 20.2337C111.782 21.6277 109.787 22.3247 107.04 22.3247C106.409 22.3247 105.768 22.2637 105.117 22.1416C104.476 22.0296 103.84 21.8515 103.209 21.6074L102.598 21.3784C102.456 21.3377 102.318 21.3072 102.186 21.2868C102.054 21.2563 101.942 21.241 101.85 21.241C101.525 21.241 101.301 21.3377 101.179 21.531C101.057 21.7142 100.95 21.9788 100.858 22.3247H99.9577V14.5862ZM117.199 14.7083C117.199 12.3069 117.835 10.4448 119.108 9.12201C120.39 7.78903 121.931 7.1225 123.732 7.1225C124.76 7.1225 125.726 7.39217 126.632 7.93148C127.538 8.47075 128.235 9.21869 128.723 10.1752C129.089 10.8976 129.344 11.8338 129.486 12.9836C129.557 13.5229 129.593 13.935 129.593 14.2199H121.626C121.697 15.4715 121.901 16.5552 122.237 17.471C122.847 19.1907 123.921 20.0505 125.457 20.0505C126.189 20.0505 126.882 19.8215 127.533 19.3637C127.93 19.0889 128.423 18.6259 129.013 17.9747L129.731 18.4173C128.764 20.0047 127.645 21.1087 126.373 21.7295C125.549 22.1263 124.602 22.3247 123.534 22.3247C121.997 22.3247 120.557 21.7193 119.214 20.5084C117.871 19.2975 117.199 17.3642 117.199 14.7083ZM125.747 13.0599C125.726 11.2182 125.584 9.93095 125.32 9.19833C125.055 8.4657 124.526 8.09935 123.732 8.09935C122.918 8.09935 122.358 8.52166 122.053 9.36623C121.758 10.2108 121.59 11.442 121.549 13.0599H125.747ZM137.463 20.0963C137.972 20.0963 138.445 19.9437 138.883 19.6384C139.127 19.4552 139.417 19.1703 139.753 18.7836V14.2199C138.919 14.4234 138.186 14.744 137.555 15.1815C136.487 15.9243 135.952 16.8707 135.952 18.0205C135.952 18.7022 136.105 19.2212 136.41 19.5773C136.726 19.9233 137.077 20.0963 137.463 20.0963ZM131.404 18.9668C131.404 17.5626 132.081 16.4484 133.434 15.6241C134.787 14.7999 136.909 13.9706 139.799 13.1362V10.862C139.799 9.93604 139.6 9.25428 139.204 8.81674C138.817 8.36902 138.125 8.14516 137.128 8.14516C136.568 8.14516 136.105 8.25198 135.739 8.4657C135.382 8.6692 135.205 8.92865 135.205 9.2441C135.205 9.36623 135.225 9.46796 135.265 9.54937C135.306 9.63078 135.367 9.71727 135.448 9.80886L135.632 10.0225C135.774 10.1955 135.886 10.3889 135.968 10.6025C136.059 10.806 136.105 11.0248 136.105 11.2588C136.105 11.8491 135.907 12.3069 135.51 12.6325C135.123 12.948 134.67 13.1057 134.151 13.1057C133.551 13.1057 133.037 12.9276 132.61 12.5715C132.193 12.2154 131.984 11.7015 131.984 11.0299C131.984 9.82918 132.549 8.87779 133.678 8.17566C134.808 7.47358 136.196 7.1225 137.845 7.1225C139.615 7.1225 141.096 7.4634 142.287 8.14516C143.467 8.83711 144.057 10.109 144.057 11.961V19.5315C144.057 19.7554 144.113 19.9488 144.225 20.1116C144.347 20.2642 144.479 20.3405 144.622 20.3405C144.744 20.3405 144.851 20.3202 144.942 20.2794C145.044 20.2286 145.197 20.1014 145.4 19.8978L145.873 20.5542C145.263 21.2665 144.586 21.7651 143.843 22.05C143.375 22.2331 142.882 22.3247 142.363 22.3247C141.437 22.3247 140.76 22.0551 140.333 21.5158C140.089 21.2105 139.91 20.7577 139.799 20.1573C138.934 21.0222 137.957 21.6328 136.868 21.9889C136.207 22.2128 135.556 22.3247 134.914 22.3247C134.06 22.3247 133.261 22.0551 132.518 21.5158C131.775 20.9663 131.404 20.1166 131.404 18.9668ZM147.028 21.1342C147.628 21.063 148.045 20.9205 148.279 20.7068C148.513 20.4931 148.641 20.081 148.661 19.4705L148.692 18.5547V10.053C148.692 9.40182 148.58 8.9592 148.356 8.72515C148.132 8.49111 147.689 8.33339 147.028 8.25198V7.48885H152.965V9.94623C153.627 9.08128 154.283 8.39443 154.934 7.88567C155.586 7.3769 156.339 7.1225 157.193 7.1225C157.834 7.1225 158.409 7.33113 158.918 7.74831C159.437 8.15534 159.696 8.7557 159.696 9.54937C159.696 10.1599 159.513 10.6636 159.147 11.0604C158.791 11.4573 158.323 11.6557 157.742 11.6557C157.081 11.6557 156.506 11.3453 156.018 10.7246C155.54 10.104 155.204 9.79359 155.01 9.79359C154.593 9.79359 154.171 10.053 153.744 10.572C153.326 11.0808 153.118 11.8134 153.118 12.7699V18.6768C153.118 19.7147 153.265 20.3659 153.56 20.6305C153.866 20.8849 154.466 21.0528 155.361 21.1342V21.8821H147.028V21.1342ZM168.085 7.092C169.398 7.092 170.533 7.41254 171.489 8.05357C172.456 8.69465 172.939 9.51887 172.939 10.5262C172.939 11.0655 172.746 11.5336 172.359 11.9304C171.983 12.3273 171.499 12.5257 170.909 12.5257C170.512 12.5257 170.166 12.4341 169.871 12.251C169.311 11.9254 169.032 11.3352 169.032 10.4804C169.032 10.3889 169.037 10.2566 169.047 10.0836C169.057 9.90041 169.062 9.70709 169.062 9.5036C169.062 8.95411 168.935 8.57761 168.681 8.37411C168.416 8.17057 168.116 8.06885 167.78 8.06885C166.813 8.06885 166.127 8.60306 165.72 9.67146C165.313 10.7297 165.109 11.9457 165.109 13.3194C165.109 15.2731 165.496 16.9113 166.269 18.2342C167.043 19.557 168.085 20.2184 169.398 20.2184C170.222 20.2184 170.924 20.0352 171.505 19.6689C171.85 19.4552 172.278 19.0635 172.787 18.4936L173.367 19.0279C172.349 20.4422 171.158 21.414 169.795 21.9431C169.073 22.2179 168.304 22.3553 167.49 22.3553C165.485 22.3553 163.847 21.6379 162.576 20.2031C161.303 18.7684 160.667 17.0182 160.667 14.9526C160.667 12.775 161.339 10.9231 162.682 9.39673C164.035 7.86026 165.837 7.092 168.085 7.092ZM174.643 21.1342C175.213 21.063 175.63 20.9103 175.895 20.6763C176.169 20.4321 176.307 19.9538 176.307 19.2415V3.32197C176.307 2.70126 176.195 2.2688 175.971 2.02459C175.747 1.7702 175.304 1.60231 174.643 1.5209V0.757737H180.687V9.54937C181.328 8.77602 182 8.18075 182.702 7.76358C183.414 7.33622 184.213 7.1225 185.098 7.1225C186.299 7.1225 187.291 7.47358 188.075 8.17566C188.858 8.86761 189.25 10.053 189.25 11.732V19.2415C189.25 19.9437 189.367 20.4067 189.601 20.6305C189.845 20.8442 190.247 21.0121 190.807 21.1342V21.8821H183.465V21.1342C184.025 21.0222 184.407 20.8696 184.61 20.6763C184.813 20.483 184.915 20.0454 184.915 19.3637V11.7931C184.915 11.0808 184.844 10.5466 184.701 10.1904C184.457 9.54937 183.974 9.22883 183.251 9.22883C182.712 9.22883 182.152 9.47814 181.573 9.97673C181.002 10.4754 180.717 10.8162 180.717 10.9994V19.3637C180.717 20.0454 180.819 20.483 181.023 20.6763C181.227 20.8696 181.608 21.0222 182.168 21.1342V21.8821H174.643V21.1342ZM211.889 0.360894C213.192 0.360894 214.51 0.605108 215.843 1.09353C217.176 1.57178 217.918 1.8109 218.071 1.8109C218.468 1.8109 218.783 1.65827 219.017 1.35301C219.261 1.04774 219.414 0.72721 219.475 0.39142H220.345V7.70253H219.551C218.798 6.11515 218.03 4.86353 217.247 3.94776C215.781 2.25863 214.123 1.41406 212.271 1.41406C210.175 1.41406 208.684 2.31968 207.799 4.13092C206.923 5.93197 206.486 8.35375 206.486 11.3962C206.486 13.6349 206.746 15.4766 207.265 16.9215C208.231 19.6282 210.027 20.9816 212.652 20.9816C214.26 20.9816 215.756 20.5338 217.14 19.6384C217.933 19.1194 218.87 18.2901 219.948 17.1505L220.879 17.9136C219.658 19.2772 218.585 20.2642 217.659 20.8747C216.01 21.9635 214.179 22.5079 212.164 22.5079C209.081 22.5079 206.496 21.5921 204.41 19.7605C202.101 17.7356 200.945 15.0085 200.945 11.5794C200.945 8.18075 202.05 5.4283 204.257 3.32197C206.333 1.34792 208.877 0.360894 211.889 0.360894ZM223.301 14.7236C223.301 12.546 223.967 10.7297 225.3 9.27464C226.643 7.81953 228.327 7.092 230.352 7.092C232.418 7.092 234.107 7.8348 235.42 9.32042C236.742 10.806 237.404 12.6071 237.404 14.7236C237.404 16.8096 236.753 18.6056 235.45 20.1116C234.147 21.6074 232.448 22.3553 230.352 22.3553C228.317 22.3553 226.633 21.6277 225.3 20.1726C223.967 18.7073 223.301 16.891 223.301 14.7236ZM227.895 14.7236C227.895 16.9113 228.007 18.4428 228.231 19.3179C228.586 20.6712 229.294 21.3479 230.352 21.3479C231.36 21.3479 232.021 20.8289 232.336 19.791C232.652 18.7531 232.81 17.064 232.81 14.7236C232.81 12.3934 232.642 10.7094 232.306 9.67146C231.98 8.62338 231.334 8.09935 230.367 8.09935C229.309 8.09935 228.602 8.77602 228.246 10.1294C228.012 11.035 227.895 12.5664 227.895 14.7236ZM244.862 7.48885V18.0968C244.862 18.7277 244.938 19.1907 245.091 19.4858C245.355 20.0047 245.879 20.2642 246.663 20.2642C247.162 20.2642 247.65 20.1065 248.128 19.791C248.403 19.618 248.749 19.328 249.166 18.921V10.053C249.166 9.40182 249.034 8.94901 248.769 8.69465C248.515 8.43007 247.996 8.28253 247.212 8.25198V7.48885H253.44V18.7379C253.44 19.3891 253.562 19.8419 253.806 20.0963C254.05 20.3405 254.528 20.4931 255.241 20.5542V21.2715C253.307 21.4547 252.086 21.5921 251.578 21.6837C251.079 21.7651 250.275 21.9788 249.166 22.3247V20.2642C248.423 20.9052 247.808 21.358 247.319 21.6226C246.464 22.0907 245.574 22.3247 244.648 22.3247C243.641 22.3247 242.699 22.0042 241.824 21.3631C240.959 20.7221 240.527 19.5824 240.527 17.9441V10.053C240.527 9.39164 240.42 8.9592 240.206 8.7557C239.993 8.55216 239.581 8.3843 238.97 8.25198V7.48885H244.862ZM256.594 21.1342C257.164 21.063 257.581 20.9103 257.845 20.6763C258.12 20.4321 258.257 19.9538 258.257 19.2415V10.053C258.257 9.42219 258.146 8.98465 257.921 8.74043C257.708 8.4962 257.265 8.33339 256.594 8.25198V7.48885H262.516V9.73255C263.014 8.97956 263.645 8.35884 264.409 7.87039C265.182 7.37181 266.036 7.1225 266.973 7.1225C268.316 7.1225 269.354 7.46849 270.086 8.16043C270.829 8.85233 271.201 10.0683 271.201 11.8083V19.3637C271.201 20.0658 271.318 20.5186 271.552 20.7221C271.796 20.9256 272.198 21.063 272.757 21.1342V21.8821H265.416V21.1342C265.975 21.0222 266.357 20.8696 266.56 20.6763C266.764 20.483 266.866 20.0454 266.866 19.3637V11.7931C266.866 11.0808 266.794 10.5466 266.652 10.1904C266.408 9.54937 265.925 9.22883 265.202 9.22883C264.663 9.22883 264.164 9.42728 263.706 9.82409C263.259 10.2108 262.913 10.6025 262.668 10.9994V19.3637C262.668 20.0454 262.77 20.483 262.974 20.6763C263.177 20.8696 263.559 21.0222 264.118 21.1342V21.8821H256.594V21.1342ZM281.772 7.092C283.085 7.092 284.22 7.41254 285.176 8.05357C286.143 8.69465 286.626 9.51887 286.626 10.5262C286.626 11.0655 286.433 11.5336 286.046 11.9304C285.67 12.3273 285.186 12.5257 284.596 12.5257C284.199 12.5257 283.853 12.4341 283.558 12.251C282.998 11.9254 282.719 11.3352 282.719 10.4804C282.719 10.3889 282.724 10.2566 282.734 10.0836C282.744 9.90041 282.749 9.70709 282.749 9.5036C282.749 8.95411 282.622 8.57761 282.367 8.37411C282.103 8.17057 281.803 8.06885 281.467 8.06885C280.5 8.06885 279.813 8.60306 279.407 9.67146C278.999 10.7297 278.796 11.9457 278.796 13.3194C278.796 15.2731 279.182 16.9113 279.956 18.2342C280.729 19.557 281.772 20.2184 283.085 20.2184C283.909 20.2184 284.611 20.0352 285.191 19.6689C285.537 19.4552 285.964 19.0635 286.473 18.4936L287.054 19.0279C286.036 20.4422 284.845 21.414 283.482 21.9431C282.759 22.2179 281.991 22.3553 281.177 22.3553C279.172 22.3553 277.534 21.6379 276.262 20.2031C274.99 18.7684 274.354 17.0182 274.354 14.9526C274.354 12.775 275.026 10.9231 276.369 9.39673C277.722 7.86026 279.524 7.092 281.772 7.092ZM289.703 2.71143C289.703 2.03985 289.937 1.47002 290.405 1.00195C290.884 0.5237 291.459 0.284577 292.13 0.284577C292.792 0.284577 293.356 0.5237 293.825 1.00195C294.303 1.47002 294.542 2.03985 294.542 2.71143C294.542 3.38302 294.303 3.95793 293.825 4.43618C293.356 4.90426 292.792 5.1383 292.13 5.1383C291.459 5.1383 290.884 4.90426 290.405 4.43618C289.937 3.95793 289.703 3.38302 289.703 2.71143ZM288.33 21.1342C288.879 21.0426 289.256 20.9052 289.459 20.7221C289.765 20.4473 289.917 19.9538 289.917 19.2415V10.053C289.917 9.42219 289.81 8.99483 289.597 8.77093C289.383 8.53693 288.961 8.36393 288.33 8.25198V7.48885H294.328V19.3637C294.328 20.0454 294.43 20.483 294.633 20.6763C294.837 20.8696 295.218 21.0222 295.778 21.1342V21.8821H288.33V21.1342ZM297.253 21.1342C297.803 21.0019 298.189 20.8289 298.413 20.6152C298.647 20.3914 298.764 19.9335 298.764 19.2415V3.32197C298.764 2.66056 298.657 2.2281 298.443 2.02459C298.23 1.82108 297.833 1.65318 297.253 1.5209V0.757737H303.175V19.2415C303.175 19.9335 303.287 20.3863 303.511 20.6C303.735 20.8136 304.132 20.9917 304.702 21.1342V21.8821H297.253V21.1342Z" fill="#222222"/>
</g>
<defs>
<clipPath id="clip0_1_2177">
<rect width="305" height="22.7745" fill="white"/>
</clipPath>
</defs>
</svg>
