<svg width="114" height="86" viewBox="0 0 114 86" fill="none" xmlns="http://www.w3.org/2000/svg">
<path d="M5.86893 50.0474C6.43413 50.0743 7.16083 50.1282 8.07592 50.1955C9.12559 50.1282 9.8792 50.0743 10.3098 50.0474C10.6463 51.1778 10.9692 52.1737 11.2788 53.0215C11.5883 53.8693 11.9516 54.8517 12.3688 55.9686C12.786 57.0856 13.1897 58.1218 13.5665 59.0773C13.9433 60.0327 14.3605 61.1631 14.8315 62.4416C15.8139 60.0731 16.702 57.893 17.496 55.8744C18.29 53.8693 18.9898 51.918 19.6088 50.034C19.7972 50.0474 19.9587 50.0609 20.1202 50.0743C20.2682 50.0743 20.4835 50.1013 20.7527 50.1416C21.0218 50.1147 21.2372 50.0878 21.3852 50.0743C21.5332 50.0743 21.7216 50.0474 21.9235 50.034C20.7258 52.8331 19.4743 55.7533 18.1689 58.8081C16.877 61.8629 15.76 64.662 14.818 67.2324C14.4143 67.1382 14.051 67.0844 13.728 67.0844C13.405 67.0844 13.0955 67.1382 12.6918 67.2324C12.1266 65.6983 11.6286 64.3391 11.1711 63.1414C10.7136 61.9437 10.108 60.423 9.36782 58.5524C8.62767 56.6819 8.04901 55.2689 7.64529 54.2865C7.24157 53.3175 6.64945 51.8911 5.85547 50.0205" fill="#AD2121"/>
<path d="M31.4631 60.4367L29.1754 54.6366L26.78 60.4367H31.4631ZM21.9219 67.1922L29.1754 49.8188C29.3234 49.8323 29.4983 49.8458 29.6867 49.8592C29.8751 49.8727 30.0232 49.8861 30.1174 49.8996C30.696 49.8727 31.019 49.8458 31.1132 49.8188L38.2052 67.1922C37.6265 67.1653 37.1959 67.1384 36.8998 67.1249C36.6038 67.1249 36.2674 67.098 35.8906 67.0846C35.581 67.098 35.3119 67.1115 35.0697 67.1249C34.8274 67.1249 34.4102 67.1518 33.8316 67.1922C33.3202 65.4966 32.7281 63.7741 32.0552 62.0112H26.1071C25.7572 62.9666 25.4881 63.6529 25.3266 64.097C25.1651 64.5411 24.9767 65.0794 24.7479 65.7254C24.5326 66.3713 24.3711 66.8558 24.2904 67.1922C24.0212 67.1653 23.7924 67.1384 23.6175 67.1249C23.4426 67.1249 23.2407 67.098 23.0254 67.0846C22.8504 67.098 22.7024 67.1115 22.5813 67.1249C22.4602 67.1249 22.2314 67.1518 21.9353 67.1922" fill="#AD2121"/>
<path d="M45.3371 58.1217C47.9612 58.3236 49.307 57.1528 49.3608 54.5959C49.3608 53.2771 49.0917 52.4158 48.5534 52.0256C48.0151 51.6219 47.2345 51.42 46.2387 51.42H45.3505V58.1217H45.3371ZM41.5017 67.2458V50.0474H47.9074C49.1051 50.0474 50.0068 50.155 50.5989 50.3569C51.191 50.5587 51.7293 50.9221 52.2272 51.42C52.927 52.0525 53.2634 52.9407 53.2634 54.098C53.2634 55.2553 52.8597 56.5069 52.0523 57.2201C51.2448 57.9333 50.3297 58.4178 49.2935 58.6466C49.9529 59.7097 50.5585 60.6786 51.1237 61.5534C51.6889 62.4281 52.2676 63.3432 52.8866 64.2717C53.5056 65.2137 54.1516 66.1961 54.811 67.2323C53.9497 67.1381 53.1827 67.0843 52.5233 67.0843C51.8639 67.0843 51.0833 67.1381 50.1817 67.2323C49.4146 65.8866 48.5264 64.3256 47.4902 62.5492C46.454 60.7728 45.7946 59.6559 45.512 59.1849H45.3371V67.2323C44.57 67.1381 43.9375 67.0843 43.4261 67.0843C42.9148 67.0843 42.2957 67.1381 41.4883 67.2323" fill="#AD2121"/>
<path d="M57.988 63.2896H58.4994C58.9435 65.0525 60.1142 65.9676 62.0386 66.008C62.873 66.0349 63.5593 65.8061 64.1245 65.3082C64.6897 64.8103 64.9589 64.1778 64.9589 63.4376C64.9589 62.6975 64.7032 62.1053 64.2053 61.594C63.7073 61.0826 62.8461 60.5847 61.6215 60.1002C60.1815 59.4812 59.1184 58.7814 58.4321 57.9874C57.7458 57.1934 57.3959 56.1572 57.3959 54.8788C57.3959 53.6003 57.6112 53.0486 58.0284 52.2411C58.459 51.4337 59.1049 50.7878 59.9931 50.3168C60.8813 49.8457 61.9983 49.6035 63.344 49.6035C64.6897 49.6035 64.7705 49.7112 65.5106 49.913C66.2373 50.1149 66.8294 50.411 67.287 50.7743C67.1793 51.0704 67.0447 51.4606 66.8833 51.9451C66.7083 52.4295 66.5737 52.8602 66.4795 53.2504H66.1027C65.9143 52.6449 65.5779 52.1469 65.08 51.7298C64.5821 51.3126 63.963 51.1107 63.196 51.1107C62.227 51.0973 61.5138 51.2991 61.0563 51.7298C60.5987 52.1604 60.3699 52.7929 60.3699 53.6003C60.3699 54.4078 61.1101 55.3902 62.6038 56.1034L64.4879 57.0319C66.9775 58.2027 68.1886 59.9118 68.1213 62.1592C68.0675 63.8548 67.3677 65.1871 65.9951 66.1425C64.6359 67.098 63.0614 67.569 61.2985 67.5286C59.7105 67.4748 58.3513 67.1249 57.2344 66.452C57.5708 65.3486 57.813 64.2989 57.9745 63.2761" fill="#AD2121"/>
<path d="M72.1719 67.192V50.0474C72.8717 50.1416 73.4907 50.1954 74.0559 50.1954C74.6211 50.1954 75.3074 50.1416 75.9938 50.0474V56.8433C76.532 56.8568 77.1107 56.8837 77.7163 56.9106C78.3219 56.9375 79.1293 56.9644 80.1117 57.0048C81.8477 56.9375 83.0723 56.8837 83.799 56.8568V50.0608C84.4718 50.1147 85.1043 50.155 85.683 50.2089C86.0329 50.1819 86.3424 50.155 86.6116 50.1281C86.8807 50.1147 87.2037 50.0877 87.6208 50.0474V67.192C87.1095 67.165 86.7327 67.1381 86.477 67.1247C86.2213 67.1247 85.9387 67.0978 85.6426 67.0843C85.3735 67.0978 85.1313 67.1112 84.9025 67.1247C84.6872 67.1247 84.3238 67.1516 83.8124 67.192V58.8484C81.6727 58.7811 80.3539 58.7542 79.8425 58.7542C79.3312 58.7542 77.8643 58.7811 76.0072 58.8484V67.192C75.6304 67.165 75.294 67.1381 74.9979 67.1247C74.7018 67.1247 74.3789 67.0978 74.0155 67.0843C73.6926 67.0978 73.3965 67.1112 73.1139 67.1247C72.8313 67.1247 72.5218 67.1516 72.1853 67.192" fill="#AD2121"/>
<path d="M100.688 60.4367L98.4002 54.6366L96.0048 60.4367H100.688ZM91.1602 67.1922L98.4136 49.8188C98.5617 49.8323 98.7366 49.8458 98.925 49.8592C99.1134 49.8727 99.2614 49.8861 99.3556 49.8996C99.9343 49.8727 100.257 49.8458 100.351 49.8188L107.443 67.1922C106.865 67.1653 106.434 67.1384 106.138 67.1249C105.842 67.1249 105.506 67.098 105.129 67.0846C104.819 67.098 104.55 67.1115 104.308 67.1249C104.066 67.1249 103.649 67.1518 103.07 67.1922C102.558 65.4966 101.966 63.7741 101.293 62.0112H95.3454C94.9955 62.9666 94.7263 63.6529 94.5649 64.097C94.4034 64.5411 94.215 65.0794 93.9862 65.7254C93.7709 66.3713 93.6094 66.8558 93.5286 67.1922C93.2595 67.1653 93.0307 67.1384 92.8558 67.1249C92.6808 67.1249 92.479 67.098 92.2636 67.0846C92.0887 67.098 91.9407 67.1115 91.8196 67.1249C91.6984 67.1249 91.4697 67.1518 91.1736 67.1922" fill="#AD2121"/>
<path fill-rule="evenodd" clip-rule="evenodd" d="M62.1343 43.8168L61.919 44.0187C58.7565 46.4813 56.6168 46.6967 53.4005 44.2878C53.1583 44.086 52.9026 43.8975 52.6603 43.6957C54.2752 44.0725 55.9574 44.2878 57.7068 44.2878C59.4563 44.2878 60.7213 44.1263 62.1477 43.8303M57.6934 15.8525C65.5659 15.8525 71.9581 20.9259 71.9581 27.1701C71.9581 33.4143 65.5659 38.4877 57.6934 38.4877C49.8208 38.4877 43.4286 33.4143 43.4286 27.1701C43.4286 20.9259 49.8208 15.8525 57.6934 15.8525ZM57.6934 21.0605C62.6053 21.0605 66.5886 24.223 66.5886 28.1121C66.5886 32.0013 62.6053 35.1638 57.6934 35.1638C52.7815 35.1638 48.7981 32.0013 48.7981 28.1121C48.7981 24.223 52.7815 21.0605 57.6934 21.0605ZM77.0719 11.9903C79.2116 11.8154 81.3513 11.5866 83.5045 11.3309C86.1421 11.2636 87.0706 12.6901 86.4112 14.8971C85.0655 16.9291 83.7063 18.9073 82.3202 20.8452C81.1494 17.5482 79.3596 14.5472 77.0719 11.9903ZM43.2537 11.8692C52.9564 12.6228 62.3092 12.865 71.7293 12.3536C75.5108 15.5161 78.2427 19.9032 79.3327 24.8958C77.7313 27.0221 76.0895 29.0676 74.4342 31.0593C75.0533 29.6328 75.4032 28.1121 75.4032 26.5242C75.4032 18.8401 67.4768 12.5959 57.7068 12.5959C47.9368 12.5959 40.0105 18.8266 40.0105 26.5242C40.0105 34.2218 47.9368 40.4525 57.7068 40.4525C67.4768 40.4525 65.7812 39.2952 68.8226 37.3573C67.3153 38.9453 65.7812 40.4659 64.2067 41.9328C62.1477 42.3769 59.9676 42.6191 57.7068 42.6191C55.446 42.6191 52.6603 42.3096 50.3591 41.7309C44.7071 36.7517 39.7279 30.9247 35.1389 24.6267C36.3232 19.486 39.2569 15.0182 43.2806 11.8692M31.3978 10.7388C33.5779 10.981 35.7311 11.2098 37.8708 11.4116C35.4081 14.0089 33.4702 17.0906 32.2052 20.5088C30.6711 18.2614 29.1639 15.9737 27.6836 13.6455C27.6836 11.8826 29.6349 10.7388 31.3978 10.7388ZM57.6261 24.0211C60.9097 24.0211 63.5877 26.1339 63.5877 28.7446C63.5877 31.3553 60.9231 33.4681 57.6261 33.4681C54.329 33.4681 51.6645 31.3553 51.6645 28.7446C51.6645 26.1339 54.329 24.0211 57.6261 24.0211Z" fill="#AD2121"/>
<path d="M91.6696 11.3309C91.6696 11.2502 91.6157 11.1022 91.4812 10.7927C91.2928 10.362 91.1716 10.2409 90.9294 10.2409H90.3373V10.9811C90.3373 11.1425 90.3373 11.2233 90.3507 11.3444H90.0547C90.0681 11.2233 90.0681 11.156 90.0681 10.9945V9.29889C90.0681 9.16432 90.0681 9.05666 90.0547 8.93555H91.0909C91.535 8.93555 91.8041 9.13741 91.8041 9.54113C91.8041 9.94484 91.7503 9.89101 91.6157 10.0121C91.535 10.0929 91.4408 10.1332 91.2658 10.1736C91.387 10.214 91.4677 10.2947 91.5888 10.5235C91.6561 10.685 91.7503 10.833 91.8311 11.0618C91.8849 11.1829 91.9387 11.2906 91.9656 11.3579H91.6426H91.6561L91.6696 11.3309ZM91.1044 10.0256C91.2389 10.0256 91.387 9.97176 91.4677 9.89101C91.5484 9.81027 91.5888 9.70261 91.5888 9.5815C91.5888 9.32581 91.4273 9.16432 91.1447 9.16432H90.3777V10.0256H91.1178H91.1044Z" fill="#AD2121" stroke="#AD2121" stroke-width="0.174945" stroke-miterlimit="10"/>
<path d="M7.19763 70.3008V74.7148H9.96984V75.428H6.36328V70.3008H7.19763Z" fill="#AD2121"/>
<path d="M14.7625 70.9604C15.1931 71.4449 15.4085 72.0774 15.4085 72.8714C15.4085 73.6653 15.1931 74.2978 14.7625 74.7823C14.305 75.2802 13.6859 75.5359 12.9054 75.5359C12.1249 75.5359 11.4924 75.2802 11.0483 74.7688C10.6177 74.2844 10.4023 73.6519 10.4023 72.8714C10.4023 72.0908 10.6042 71.4583 11.0483 70.9604C11.4924 70.449 12.1114 70.1934 12.9054 70.1934C13.6994 70.1934 14.305 70.449 14.7625 70.9604ZM11.6673 71.4718C11.3847 71.8217 11.2502 72.2792 11.2502 72.8714C11.2502 73.4635 11.3847 73.9076 11.6673 74.2575C11.9499 74.6074 12.3671 74.7958 12.9054 74.7958C13.4437 74.7958 13.8474 74.6208 14.13 74.2844C14.4126 73.9479 14.5606 73.4769 14.5606 72.8714C14.5606 72.2658 14.4126 71.7948 14.13 71.4449C13.8474 71.095 13.4302 70.9335 12.9054 70.9335C12.3806 70.9335 11.9634 71.1085 11.6673 71.4718Z" fill="#AD2121"/>
<path d="M19.9829 70.6372C20.3463 70.9198 20.5751 71.3505 20.6693 71.9291H19.8214C19.7542 71.5927 19.5927 71.3505 19.3639 71.189C19.1217 71.0275 18.8121 70.9468 18.4219 70.9468C18.0316 70.9468 17.5606 71.1082 17.278 71.4312C16.9685 71.7811 16.8205 72.2521 16.8205 72.8846C16.8205 73.5171 16.955 73.9612 17.2242 74.2842C17.5202 74.6341 17.9778 74.7955 18.6103 74.7955C19.2428 74.7955 19.0813 74.7686 19.2966 74.7148C19.4985 74.661 19.6734 74.5802 19.8484 74.4726V73.4094H18.4892V72.6962H20.6827V74.8628C20.4136 75.0781 20.104 75.2396 19.7542 75.3473C19.3774 75.4684 18.9736 75.5222 18.5161 75.5222C17.6952 75.5222 17.0627 75.2665 16.6051 74.7417C16.1745 74.2573 15.9727 73.6382 15.9727 72.8711C15.9727 72.1041 16.1745 71.4716 16.6051 70.9737C17.0492 70.4354 17.6548 70.1797 18.4219 70.1797C19.1889 70.1797 19.6061 70.3277 19.9829 70.6238V70.6372Z" fill="#AD2121"/>
<path d="M22.4711 70.3008V75.428H21.6367V70.3008H22.4711Z" fill="#AD2121"/>
<path d="M26.6981 70.57C27.0615 70.8391 27.2633 71.2563 27.3172 71.808H26.4828C26.4155 71.4985 26.2809 71.2563 26.0925 71.1217C25.9041 70.9737 25.6215 70.9198 25.2447 70.9198C24.8679 70.9198 24.6795 70.9602 24.5046 71.0544C24.2893 71.1621 24.1816 71.337 24.1816 71.5927C24.1816 71.8484 24.3027 71.983 24.5449 72.1175C24.6526 72.1714 24.9487 72.279 25.4197 72.4271C26.1195 72.6424 26.5635 72.8173 26.7654 72.925C27.2095 73.1941 27.4383 73.5575 27.4383 74.0285C27.4383 74.4995 27.2633 74.8494 26.9 75.1185C26.5366 75.3742 26.0253 75.5088 25.3793 75.5088C24.7334 75.5088 24.2489 75.3877 23.899 75.1454C23.4684 74.8494 23.2261 74.3649 23.1992 73.719H24.0336C24.0874 74.1092 24.222 74.3918 24.4507 74.5533C24.6526 74.7013 24.9621 74.7821 25.3793 74.7821C25.7965 74.7821 26.0522 74.7148 26.2675 74.5937C26.4828 74.4591 26.6039 74.2976 26.6039 74.0823C26.6039 73.867 26.4424 73.5978 26.1195 73.4364C26.0253 73.3825 25.6888 73.2749 25.1236 73.0999C24.4911 72.8981 24.1009 72.75 23.9394 72.6693C23.5491 72.4271 23.3472 72.0906 23.3472 71.6331C23.3472 71.1755 23.5357 70.8256 23.9259 70.5565C24.2893 70.3008 24.7334 70.1797 25.2851 70.1797C25.8368 70.1797 26.3617 70.3008 26.6981 70.5565V70.57Z" fill="#AD2121"/>
<path d="M31.9604 70.3008V71.014H30.2782V75.428H29.4439V71.014H27.7617V70.3008H31.9604Z" fill="#AD2121"/>
<path d="M33.4125 70.3008V75.428H32.5781V70.3008H33.4125Z" fill="#AD2121"/>
<path d="M38.1379 70.6641C38.5147 70.9601 38.73 71.3773 38.8107 71.9022H37.9898C37.9091 71.5657 37.7476 71.3235 37.5054 71.162C37.2766 71.0005 36.9805 70.9332 36.6172 70.9332C36.0789 70.9332 35.6752 71.1082 35.406 71.485C35.1504 71.8214 35.0292 72.279 35.0292 72.8711C35.0292 73.4632 35.1504 73.9477 35.3926 74.2706C35.6617 74.6205 36.0789 74.7955 36.6307 74.7955C37.1824 74.7955 37.3035 74.7013 37.5323 74.5263C37.7745 74.3379 37.9495 74.0419 38.0437 73.6516H38.8646C38.7434 74.2572 38.4878 74.7282 38.0571 75.0646C37.6669 75.3741 37.1824 75.5356 36.6307 75.5356C35.7694 75.5356 35.1369 75.2665 34.7197 74.7282C34.3564 74.2706 34.168 73.6516 34.168 72.8711C34.168 72.0906 34.3564 71.485 34.7332 71.014C35.1638 70.4622 35.7963 70.2065 36.6037 70.2065C37.4112 70.2065 37.7072 70.368 38.0975 70.6775H38.1379V70.6641Z" fill="#AD2121"/>
<path d="M42.9012 70.57C43.2646 70.8391 43.4664 71.2563 43.5203 71.808H42.6859C42.6186 71.4985 42.4841 71.2563 42.2957 71.1217C42.1073 70.9737 41.8247 70.9198 41.4479 70.9198C41.0711 70.9198 40.8826 70.9602 40.7077 71.0544C40.4924 71.1621 40.3847 71.337 40.3847 71.5927C40.3847 71.8484 40.5058 71.983 40.7481 72.1175C40.8557 72.1714 41.1518 72.279 41.6228 72.4271C42.3226 72.6424 42.7667 72.8173 42.9685 72.925C43.4126 73.1941 43.6414 73.5575 43.6414 74.0285C43.6414 74.4995 43.4664 74.8494 43.1031 75.1185C42.7398 75.3742 42.2284 75.5088 41.5824 75.5088C40.9365 75.5088 40.452 75.3877 40.1021 75.1454C39.6715 74.8494 39.4293 74.3649 39.4023 73.719H40.2367C40.2905 74.1092 40.4251 74.3918 40.6539 74.5533C40.8557 74.7013 41.1653 74.7821 41.5824 74.7821C41.9996 74.7821 42.2553 74.7148 42.4706 74.5937C42.6859 74.4591 42.807 74.2976 42.807 74.0823C42.807 73.867 42.6456 73.5978 42.3226 73.4364C42.2284 73.3825 41.8919 73.2749 41.3267 73.0999C40.6942 72.8981 40.304 72.75 40.1425 72.6693C39.7522 72.4271 39.5504 72.0906 39.5504 71.6331C39.5504 71.1755 39.7388 70.8256 40.129 70.5565C40.4924 70.3008 40.9365 70.1797 41.4882 70.1797C42.04 70.1797 42.5648 70.3008 42.9012 70.5565V70.57Z" fill="#AD2121"/>
<path d="M48.8763 70.3008C50.1143 70.3008 50.7334 70.8256 50.7334 71.8753C50.7334 72.9249 50.1143 73.4632 48.8628 73.4632H47.5844V75.428H46.75V70.3008H48.8763ZM47.5844 72.7365H48.809C49.1858 72.7365 49.4549 72.6693 49.6299 72.5347C49.8048 72.4001 49.8856 72.1713 49.8856 71.8618C49.8856 71.5523 49.7914 71.337 49.6164 71.2024C49.4415 71.0678 49.1723 71.0006 48.809 71.0006H47.5844V72.7231V72.7365Z" fill="#AD2121"/>
<path d="M53.7309 70.3006C54.2557 70.3006 54.6729 70.4217 54.969 70.6505C55.2919 70.9061 55.4534 71.2829 55.4534 71.7674C55.4534 72.2519 55.3861 72.2653 55.2381 72.4806C55.0766 72.7094 54.8613 72.8575 54.5787 72.9382C55.0228 73.0593 55.2785 73.3419 55.3323 73.8533L55.413 74.6742C55.44 74.9837 55.5476 75.2394 55.7226 75.4278H54.8075C54.6864 75.2663 54.6191 75.051 54.5787 74.7549L54.5114 74.1224C54.4845 73.8398 54.3903 73.638 54.2557 73.5169C54.1077 73.3823 53.8789 73.3285 53.5963 73.3285H52.264V75.4143H51.4297V70.2871H53.7309V70.3006ZM52.291 72.6152H53.6232C53.9597 72.6152 54.2019 72.5479 54.3768 72.4134C54.5383 72.2653 54.6191 72.0635 54.6191 71.8078C54.6191 71.5521 54.5383 71.3233 54.3768 71.2022C54.2153 71.0676 53.9731 71.0138 53.6232 71.0138H52.291V72.6152Z" fill="#AD2121"/>
<path d="M57.2992 70.3008V75.428H56.4648V70.3008H57.2992Z" fill="#AD2121"/>
<path d="M58.7532 70.3008L60.1662 74.486H60.1931L61.6061 70.3008H62.5212L60.6911 75.428H59.6818L57.8516 70.3008H58.7667H58.7532Z" fill="#AD2121"/>
<path d="M65.4532 70.3008L67.418 75.428H66.5163L66.0453 74.1361H63.8922L63.4212 75.428H62.5195L64.4843 70.3008H65.4532ZM65.8031 73.4498L64.9957 71.2024H64.9688L64.1613 73.4498H65.8031Z" fill="#AD2121"/>
<path d="M71.7377 70.3008V71.014H70.0556V75.428H69.2212V71.014H67.5391V70.3008H71.7377Z" fill="#AD2121"/>
<path d="M76.0445 70.3006V71.0138H73.1781V72.4403H75.8696V73.1535H73.1781V74.7011H76.1656V75.4143H72.3438V70.2871H76.0445V70.3006Z" fill="#AD2121"/>
<path d="M80.1898 70.3008V74.7148H82.962V75.428H79.3555V70.3008H80.1898Z" fill="#AD2121"/>
<path d="M84.4437 70.3008V75.428H83.6094V70.3008H84.4437Z" fill="#AD2121"/>
<path d="M86.4338 70.3008L88.1832 74.3245H88.2101L89.9461 70.3008H90.9285V75.428H90.0942V71.8887H90.0672L88.56 75.428H87.8333L86.3261 71.8887H86.2992V75.428H85.4648V70.3008H86.4472H86.4338Z" fill="#AD2121"/>
<path d="M92.7875 70.3008V75.428H91.9531V70.3008H92.7875Z" fill="#AD2121"/>
<path d="M97.5893 70.3008V71.014H95.9071V75.428H95.0728V71.014H93.3906V70.3008H97.5893Z" fill="#AD2121"/>
<path d="M101.912 70.3006V71.0138H99.0453V72.4403H101.737V73.1535H99.0453V74.7011H102.033V75.4143H98.2109V70.2871H101.912V70.3006Z" fill="#AD2121"/>
<path d="M104.695 70.3006C105.529 70.3006 106.148 70.5293 106.579 70.9869C106.983 71.4175 107.198 72.05 107.198 72.8575C107.198 73.6649 106.996 74.2974 106.579 74.728C106.148 75.1856 105.516 75.4143 104.695 75.4143H102.824V70.2871H104.695V70.3006ZM103.659 74.7146H104.533C105.179 74.7146 105.637 74.5665 105.933 74.2705C106.215 73.9744 106.363 73.5034 106.363 72.8709C106.363 72.2384 106.215 71.754 105.933 71.4579C105.637 71.1618 105.166 71.0138 104.533 71.0138H103.659V74.7146Z" fill="#AD2121"/>
<path d="M90.9861 12.7438C92.4131 12.7438 93.5699 11.587 93.5699 10.16C93.5699 8.73298 92.4131 7.57617 90.9861 7.57617C89.5591 7.57617 88.4023 8.73298 88.4023 10.16C88.4023 11.587 89.5591 12.7438 90.9861 12.7438Z" stroke="#AD2121" stroke-width="0.34989" stroke-miterlimit="10"/>
</svg>
