<svg xmlns="http://www.w3.org/2000/svg" width="146" height="45" viewBox="0 0 146 45" fill="none"><path d="M56.5078 18.8968V5.28516H62.2187C64.2798 5.28516 65.7826 5.80042 66.8561 6.8739C67.8866 7.90443 68.4019 9.70787 68.4019 12.1554C68.4019 14.517 67.8866 16.1916 66.8561 17.2651C65.8256 18.3386 64.2798 18.8968 62.2187 18.8968H56.5078ZM59.3418 16.7069H61.7893C62.6051 16.7069 63.2492 16.5781 63.8074 16.3205C64.3656 16.0628 64.7521 15.6334 65.0527 14.9464C65.3103 14.3023 65.482 13.3577 65.482 12.1124C65.482 10.8672 65.3532 9.9655 65.0956 9.27848C64.838 8.63439 64.4515 8.205 63.8933 7.94737C63.378 7.68974 62.6481 7.60386 61.7893 7.60386H59.3418V16.7069Z" fill="#007AFF"></path><path d="M73.2084 19.1138C72.5643 19.1138 72.0062 18.985 71.4479 18.7703C70.8897 18.5556 70.4603 18.2121 70.1168 17.7397C69.7733 17.2674 69.6016 16.7092 69.6016 16.0222C69.6016 15.0346 69.9451 14.2617 70.6321 13.6605C71.3191 13.0594 72.3497 12.7588 73.7237 12.7588H76.6865V12.4583C76.6865 11.8571 76.5147 11.3848 76.1712 11.1271C75.8277 10.8695 75.1407 10.7407 74.0672 10.7407C72.9079 10.7407 71.8344 10.9125 70.7609 11.256V9.23783C71.2332 9.06608 71.7915 8.89432 72.4785 8.76551C73.1655 8.63669 73.8955 8.59375 74.6684 8.59375C76.1712 8.59375 77.3306 8.89432 78.1893 9.49547C79.0481 10.0966 79.4346 11.0842 79.4346 12.4583V18.8991H76.9441L76.8153 17.9974C76.4289 18.3409 75.9136 18.6415 75.3554 18.8132C74.7972 19.0279 74.0672 19.1138 73.2084 19.1138ZM73.9813 17.2245C74.6254 17.2245 75.1836 17.1386 75.613 16.9239C76.0853 16.7092 76.4289 16.4516 76.7294 16.1081V14.5193H73.8525C72.7361 14.5193 72.1779 14.9917 72.1779 15.8934C72.1779 16.7951 72.779 17.2245 73.9813 17.2245Z" fill="#007AFF"></path><path d="M85.7467 19.108C84.5873 19.108 83.7285 18.8074 83.1703 18.2063C82.6121 17.6051 82.3545 16.7893 82.3545 15.7158V11.0784H80.9375V8.88854H82.3545V6.74159L85.1885 5.88281V8.88854H87.7219L87.5501 11.0784H85.1885V15.5441C85.1885 16.1023 85.3173 16.4887 85.5749 16.6605C85.8325 16.8752 86.219 16.9611 86.7772 16.9611C87.1636 16.9611 87.593 16.8752 88.0224 16.7464V18.7216C87.7219 18.8504 87.3783 18.9362 86.9919 19.0221C86.6054 19.0651 86.1761 19.108 85.7467 19.108Z" fill="#007AFF"></path><path d="M92.6225 19.1138C91.9784 19.1138 91.4202 18.985 90.862 18.7703C90.3038 18.5556 89.8744 18.2121 89.5309 17.7397C89.1874 17.2674 89.0156 16.7092 89.0156 16.0222C89.0156 15.0346 89.3591 14.2617 90.0462 13.6605C90.7332 13.0594 91.7637 12.7588 93.1378 12.7588H96.1005V12.4583C96.1005 11.8571 95.9288 11.3848 95.5853 11.1271C95.2418 10.8695 94.5547 10.7407 93.4813 10.7407C92.3219 10.7407 91.2484 10.9125 90.175 11.256V9.23783C90.6473 9.06608 91.2055 8.89432 91.8925 8.76551C92.5795 8.63669 93.3095 8.59375 94.0824 8.59375C95.5853 8.59375 96.7446 8.89432 97.6034 9.49547C98.4622 10.0966 98.8486 11.0842 98.8486 12.4583V18.8991H96.3582L96.2294 17.9974C95.8429 18.3409 95.3276 18.6415 94.7694 18.8132C94.2112 19.0279 93.4813 19.1138 92.6225 19.1138ZM93.3954 17.2245C94.0395 17.2245 94.5977 17.1386 95.0271 16.9239C95.4994 16.7092 95.8429 16.4516 96.1435 16.1081V14.5193H93.2666C92.1502 14.5193 91.592 14.9917 91.592 15.8934C91.549 16.7951 92.1502 17.2245 93.3954 17.2245Z" fill="#007AFF"></path><path d="M107.047 19.111C106.359 19.111 105.715 19.0252 105.2 18.8105C104.685 18.6387 104.213 18.3381 103.783 17.9517L103.654 18.8964H101.164V4.64062H104.041V9.40685C104.47 9.14921 104.9 8.97746 105.415 8.84864C105.93 8.71982 106.445 8.67688 107.004 8.67688C108.421 8.67688 109.58 9.06334 110.439 9.87918C111.297 10.695 111.684 11.9832 111.684 13.7866C111.684 15.5901 111.255 16.9212 110.439 17.7799C109.58 18.6817 108.464 19.111 107.047 19.111ZM106.274 17.007C107.175 17.007 107.819 16.7494 108.206 16.1912C108.592 15.6759 108.764 14.8601 108.764 13.7866C108.764 12.6702 108.549 11.8973 108.163 11.425C107.776 10.9526 107.132 10.738 106.231 10.738C105.801 10.738 105.372 10.7809 104.985 10.9097C104.599 11.0385 104.255 11.2103 103.998 11.4679V16.0624C104.298 16.363 104.599 16.5776 104.985 16.7494C105.372 16.9212 105.844 17.007 106.274 17.007Z" fill="#007AFF"></path><path d="M116.794 19.1138C116.15 19.1138 115.592 18.985 115.034 18.7703C114.476 18.5556 114.046 18.2121 113.703 17.7397C113.359 17.2674 113.188 16.7092 113.188 16.0222C113.188 15.0346 113.531 14.2617 114.218 13.6605C114.905 13.0594 115.936 12.7588 117.31 12.7588H120.272V12.4583C120.272 11.8571 120.101 11.3848 119.757 11.1271C119.414 10.8695 118.727 10.7407 117.653 10.7407C116.494 10.7407 115.42 10.9125 114.347 11.256V9.23783C114.819 9.06608 115.377 8.89432 116.064 8.76551C116.751 8.63669 117.481 8.59375 118.254 8.59375C119.757 8.59375 120.917 8.89432 121.775 9.49547C122.634 10.0966 123.021 11.0842 123.021 12.4583V18.8991H120.53L120.401 17.9974C120.015 18.3409 119.5 18.6415 118.941 18.8132C118.383 19.0279 117.653 19.1138 116.794 19.1138ZM117.567 17.2245C118.211 17.2245 118.77 17.1386 119.199 16.9239C119.671 16.7092 120.015 16.4516 120.315 16.1081V14.5193H117.438C116.322 14.5193 115.764 14.9917 115.764 15.8934C115.764 16.7951 116.365 17.2245 117.567 17.2245Z" fill="#007AFF"></path><path d="M128.904 19.11C128.174 19.11 127.444 19.0671 126.757 18.9382C126.07 18.8094 125.554 18.7235 125.125 18.5518V16.1902C125.597 16.4048 126.155 16.5337 126.8 16.6625C127.401 16.7484 128.002 16.8342 128.517 16.8342C129.204 16.8342 129.719 16.7913 130.02 16.7054C130.32 16.6195 130.449 16.4478 130.449 16.1472C130.449 15.8037 130.235 15.5461 129.762 15.4173C129.333 15.2455 128.646 15.0308 127.787 14.7732C126.885 14.4726 126.155 14.0861 125.683 13.6568C125.168 13.2274 124.953 12.5833 124.953 11.7245C124.953 10.7798 125.297 10.0499 125.984 9.53462C126.671 9.01935 127.787 8.76172 129.376 8.76172C129.977 8.76172 130.578 8.80466 131.136 8.89053C131.695 8.97641 132.167 9.10523 132.553 9.23405V11.5957C132.167 11.4239 131.737 11.2951 131.222 11.1663C130.707 11.0804 130.278 11.0375 129.848 11.0375C129.247 11.0375 128.775 11.0804 128.388 11.1663C128.045 11.2522 127.83 11.4239 127.83 11.7245C127.83 12.0251 128.045 12.2398 128.431 12.3686C128.818 12.4974 129.419 12.6692 130.235 12.9268C131.05 13.1844 131.652 13.4421 132.124 13.6997C132.553 14.0003 132.897 14.3008 133.069 14.6873C133.24 15.0737 133.326 15.5461 133.326 16.1472C133.326 18.0795 131.866 19.11 128.904 19.11Z" fill="#007AFF"></path><path d="M140.242 19.1138C138.525 19.1138 137.151 18.6845 136.12 17.8257C135.09 16.9669 134.617 15.6358 134.617 13.8753C134.617 12.2866 135.047 10.9984 135.905 10.0967C136.764 9.15202 138.052 8.67969 139.727 8.67969C141.273 8.67969 142.475 9.06614 143.291 9.88198C144.107 10.6978 144.536 11.7713 144.536 13.0595V14.8629H137.279C137.451 15.6787 137.795 16.2369 138.396 16.4946C138.997 16.7522 139.813 16.924 140.886 16.924C141.402 16.924 141.96 16.881 142.518 16.7951C143.076 16.7093 143.548 16.5805 143.935 16.4087V18.4698C143.463 18.6845 142.947 18.8562 142.303 18.9421C141.659 19.0709 140.972 19.1138 140.242 19.1138ZM137.236 13.1453H142.003V12.5871C142.003 12.0289 141.831 11.5566 141.487 11.2131C141.144 10.8696 140.586 10.6978 139.77 10.6978C138.825 10.6978 138.181 10.8696 137.795 11.256C137.408 11.6854 137.236 12.2866 137.236 13.1453Z" fill="#007AFF"></path><path d="M56.5078 40.0648V26.4531H62.9057C63.9792 26.4531 64.838 26.6678 65.525 27.0543C66.212 27.4837 66.7273 27.9989 67.0708 28.7289C67.4143 29.4159 67.5861 30.2318 67.5861 31.1335C67.5861 32.0352 67.3714 32.851 66.9849 33.581C66.5985 34.268 66.0403 34.8262 65.3532 35.2127C64.6233 35.5991 63.8074 35.8138 62.8198 35.8138H59.3847V40.1077H56.5078V40.0648ZM59.3418 33.4951H62.1758C62.9916 33.4951 63.5927 33.2804 64.0221 32.851C64.4515 32.4216 64.6662 31.8205 64.6662 31.0905C64.6662 30.3176 64.4515 29.7165 64.0651 29.2871C63.6786 28.8577 63.0775 28.643 62.3046 28.643H59.3418V33.4951Z" fill="#007AFF"></path><path d="M69.1367 40.0632V30.0584H71.7989L71.9277 31.089C72.4001 30.7884 72.9583 30.5308 73.6024 30.3161C74.2894 30.1014 74.9335 29.9296 75.5776 29.8438V31.9907C75.1911 32.0336 74.7617 32.1195 74.3323 32.2483C73.86 32.3771 73.4306 32.506 73.0442 32.6348C72.6148 32.7636 72.2713 32.9354 72.0136 33.0642V40.0632H69.1367Z" fill="#007AFF"></path><path d="M81.629 40.2818C79.7397 40.2818 78.3657 39.8095 77.5069 38.9077C76.6481 38.006 76.1758 36.7179 76.1758 35.0432C76.1758 33.3686 76.6052 32.0804 77.5069 31.1787C78.4086 30.277 79.7397 29.8047 81.629 29.8047C83.5183 29.8047 84.8924 30.277 85.7512 31.1787C86.6529 32.0804 87.0823 33.3686 87.0823 35.0432C87.0823 36.7179 86.6529 38.006 85.7512 38.9077C84.8924 39.8095 83.5183 40.2818 81.629 40.2818ZM81.629 37.8343C82.5307 37.8343 83.2178 37.6196 83.6042 37.1902C83.9907 36.7608 84.2054 36.0308 84.2054 35.0432C84.2054 34.0556 83.9907 33.2827 83.6042 32.8963C83.2178 32.5098 82.5737 32.2522 81.629 32.2522C80.7273 32.2522 80.0832 32.4669 79.6968 32.8963C79.3103 33.3257 79.0956 34.0556 79.0956 35.0432C79.0956 36.0308 79.3103 36.8037 79.6968 37.1902C80.0832 37.6196 80.7273 37.8343 81.629 37.8343Z" fill="#007AFF"></path><path d="M91.4152 40.0673L87.4648 30.0625H90.4276L92.9181 37.1904L95.4515 30.0625H98.4143L94.4639 40.0673H91.4152Z" fill="#007AFF"></path><path d="M100.643 40.0644V32.1636H99.1406L99.3982 30.0596H103.52V40.0644H100.643ZM100.386 28.1703V25.9375H103.477V28.1703H100.386Z" fill="#007AFF"></path><path d="M110.091 40.283C109.189 40.283 108.416 40.1112 107.729 39.8106C107.042 39.5101 106.484 38.9519 106.097 38.2649C105.711 37.5349 105.496 36.5902 105.496 35.3879C105.496 34.1857 105.711 33.1981 106.14 32.3822C106.57 31.5664 107.171 30.9652 107.901 30.5358C108.631 30.1065 109.446 29.8918 110.305 29.8918C111.422 29.8918 112.323 30.1494 113.139 30.6647V25.8984H116.016V40.1542H113.569L113.397 39.2095C112.967 39.596 112.495 39.8965 111.98 40.0683C111.422 40.1542 110.821 40.283 110.091 40.283ZM110.906 38.179C111.808 38.179 112.538 37.8784 113.139 37.2773V32.7257C112.538 32.2105 111.851 31.9528 111.078 31.9528C109.318 31.9528 108.416 33.1122 108.416 35.3879C108.416 36.4614 108.631 37.1914 109.06 37.6208C109.489 37.9643 110.091 38.179 110.906 38.179Z" fill="#007AFF"></path><path d="M123.402 40.2779C121.685 40.2779 120.311 39.8485 119.28 38.9897C118.25 38.131 117.777 36.7999 117.777 35.0394C117.777 33.4506 118.207 32.1625 119.066 31.2607C119.924 30.3161 121.212 29.8438 122.887 29.8438C124.433 29.8438 125.635 30.2302 126.451 31.046C127.267 31.8619 127.696 32.9354 127.696 34.2235V36.027H120.44C120.611 36.8428 120.955 37.401 121.556 37.6586C122.157 37.9163 122.973 38.088 124.046 38.088C124.562 38.088 125.12 38.0451 125.678 37.9592C126.236 37.8733 126.709 37.7445 127.095 37.5728V39.5909C126.623 39.8056 126.107 39.9773 125.463 40.0632C124.819 40.192 124.132 40.2779 123.402 40.2779ZM120.397 34.2665H125.163V33.7083C125.163 33.15 124.991 32.6777 124.648 32.3342C124.304 31.9907 123.746 31.8189 122.93 31.8189C121.985 31.8189 121.341 31.9907 120.955 32.3771C120.611 32.8065 120.397 33.4077 120.397 34.2665Z" fill="#007AFF"></path><path d="M129.676 40.0632V30.0584H132.338L132.467 31.089C132.939 30.7884 133.497 30.5308 134.141 30.3161C134.828 30.1014 135.473 29.9296 136.117 29.8438V31.9907C135.73 32.0336 135.301 32.1195 134.871 32.2483C134.399 32.3771 133.97 32.506 133.583 32.6348C133.154 32.7636 132.81 32.9354 132.553 33.0642V40.0632H129.676Z" fill="#007AFF"></path><path d="M140.966 40.278C140.236 40.278 139.506 40.235 138.819 40.1062C138.132 39.9774 137.617 39.8915 137.187 39.7198V37.3581C137.66 37.5728 138.218 37.7016 138.862 37.8305C139.463 37.9163 140.064 38.0022 140.58 38.0022C141.267 38.0022 141.782 37.9593 142.082 37.8734C142.383 37.7875 142.512 37.6158 142.512 37.3152C142.512 36.9717 142.297 36.714 141.825 36.5852C141.395 36.4135 140.708 36.1988 139.85 35.9411C138.948 35.6406 138.218 35.2541 137.746 34.8247C137.23 34.3953 137.016 33.7513 137.016 32.8925C137.016 31.9478 137.359 31.2179 138.046 30.7026C138.733 30.1873 139.85 29.9297 141.438 29.9297C142.039 29.9297 142.641 29.9726 143.199 30.0585C143.757 30.1444 144.229 30.2732 144.616 30.402V32.7637C144.229 32.5919 143.8 32.4631 143.285 32.3343C142.769 32.2484 142.34 32.2055 141.911 32.2055C141.31 32.2055 140.837 32.2484 140.451 32.3343C140.107 32.4201 139.893 32.5919 139.893 32.8925C139.893 33.193 140.107 33.4077 140.494 33.5366C140.88 33.6654 141.481 33.8371 142.297 34.0948C143.113 34.3524 143.714 34.61 144.186 34.8677C144.616 35.1682 144.959 35.4688 145.131 35.8553C145.303 36.2417 145.389 36.714 145.389 37.3152C145.389 39.2474 143.929 40.278 140.966 40.278Z" fill="#007AFF"></path><path d="M22.5 45C34.9264 45 45 34.9264 45 22.5C45 10.0736 34.9264 0 22.5 0C10.0736 0 0 10.0736 0 22.5C0 34.9264 10.0736 45 22.5 45Z" fill="url(#paint0_linear_1_5548)"></path><path fill-rule="evenodd" clip-rule="evenodd" d="M24.6572 14.0383V11.9773C25.6448 11.9773 28.994 11.8914 29.7669 12.0631C30.7545 12.2778 31.6562 12.836 32.1715 13.566C32.3862 13.8666 32.515 14.0383 32.6868 14.4248C33.6314 16.357 32.7726 18.8475 30.9263 19.8351C30.1534 20.2645 29.724 20.3074 28.8652 20.3933V24.6443C30.2392 24.7301 31.828 24.2149 33.0303 23.5708C33.3308 23.399 33.5455 23.2273 33.8032 23.0555C34.9625 22.2397 36.2078 20.7368 36.723 19.3628C37.8394 16.4 37.41 13.566 35.6066 11.0756C35.349 10.6891 35.0055 10.3885 34.7049 10.045C34.1467 9.48681 33.4597 9.05742 32.7297 8.67097C30.4539 7.46868 28.3929 7.72631 25.6877 7.72631C23.9272 7.72631 22.1238 7.68337 20.3633 7.72631V18.3322" fill="white"></path><path fill-rule="evenodd" clip-rule="evenodd" d="M20.4007 30.9552V33.0162C19.5849 33.0162 18.812 33.0162 17.9961 33.0162C15.8921 33.0162 14.6898 33.188 13.187 31.6851C12.3282 30.8693 11.9847 29.7529 12.0276 28.5077C12.0276 27.7348 12.4999 26.6183 12.9723 26.1031C13.4017 25.6307 13.5305 25.5019 14.0887 25.1584C14.6039 24.8149 15.4198 24.6002 16.2356 24.6002V20.3493C15.0763 20.2634 13.187 20.7786 12.1994 21.3369C12.1994 21.3369 12.1994 21.3369 12.1564 21.3369L11.4265 21.7662C9.06482 23.355 7.81959 25.9313 7.73372 28.7224C7.69078 30.1393 8.07723 31.4275 8.67837 32.6727C8.80719 32.9733 9.02188 33.2739 9.19364 33.5315C10.8683 35.9361 13.4446 37.2243 16.4503 37.2243H21.9036C22.8053 37.2243 23.7929 37.2672 24.6946 37.2243V26.6183" fill="white"></path><path d="M24.6572 25.9766L20.3633 30.2275V19.0205L24.6572 14.7695V25.9766Z" fill="white"></path><defs><linearGradient id="paint0_linear_1_5548" x1="0.0130964" y1="22.4806" x2="45.0226" y2="22.4806" gradientUnits="userSpaceOnUse"><stop stop-color="#1798FF"></stop><stop offset="1" stop-color="#264BD1"></stop></linearGradient></defs></svg>