<svg width="244" height="68" viewBox="0 0 244 68" fill="none" xmlns="http://www.w3.org/2000/svg">
<path d="M50.6784 0H10.6942C5.30966 0 0.929688 4.61832 0.929688 10.2952C0.929688 15.9721 5.30966 20.5914 10.6942 20.5914H19.4338V15.2271H10.6942C8.11481 15.2271 6.01698 13.0145 6.01698 10.2952C6.01698 7.57594 8.11481 5.36424 10.6942 5.36424H50.6784C53.2578 5.36424 55.3556 7.57594 55.3556 10.2952C55.3556 13.0145 53.2578 15.2271 50.6784 15.2271H27.5482V20.5914H50.6784C56.0629 20.5914 60.4429 15.9721 60.4429 10.2952C60.4429 4.61832 56.0629 0 50.6784 0Z" fill="#FF4E00"/>
<mask id="mask0_1347_3150" style="mask-type:luminance" maskUnits="userSpaceOnUse" x="20" y="7" width="21" height="60">
<path d="M20.832 7.07031H40.5945V66.1107H20.832V7.07031Z" fill="white"/>
</mask>
<g mask="url(#mask0_1347_3150)">
<mask id="mask1_1347_3150" style="mask-type:luminance" maskUnits="userSpaceOnUse" x="20" y="7" width="21" height="60">
<path d="M20.9258 16.9285V56.3213C20.9258 61.7048 25.3058 66.0848 30.6903 66.0848C36.0738 66.0848 40.4547 61.7048 40.4547 56.3213V22.0824H35.3674V56.3213C35.3674 58.8997 33.2696 60.9975 30.6903 60.9975C28.1109 60.9975 26.0131 58.8997 26.0131 56.3213V16.9285C26.0131 14.3502 28.1109 12.2523 30.6903 12.2523C32.131 12.2523 33.4192 12.9075 34.278 13.9343H39.9829C38.7159 10.0107 35.0297 7.16406 30.6903 7.16406C25.3058 7.16406 20.9258 11.545 20.9258 16.9285Z" fill="white"/>
</mask>
<g mask="url(#mask1_1347_3150)">
<path d="M35.5779 -1.29297L-4.58203 21.8932L25.8134 74.5407L65.9743 51.3536L35.5779 -1.29297Z" fill="url(#paint0_linear_1347_3150)"/>
</g>
</g>
<path d="M69.2684 30.598H63.0781V27.9723H78.4326V30.598H72.2424V47.1047H69.2684V30.598ZM79.3706 49.9986C79.9061 50.1771 80.4156 50.2669 80.8981 50.2669C81.4511 50.2669 81.8805 50.1019 82.1844 49.7709C82.4874 49.4399 82.8088 48.8368 83.1484 47.9625L83.6579 46.6222L77.789 33.1976H80.9512L85.0243 43.5411L88.7491 33.1976H91.7501L85.7751 48.2028C85.3997 49.1678 85.0195 49.9764 84.6354 50.6287C84.2514 51.2801 83.8007 51.7713 83.2826 52.1022C82.7644 52.4323 82.1034 52.5982 81.2996 52.5982C80.8528 52.5982 80.4427 52.5664 80.0673 52.5046C79.6919 52.4409 79.2905 52.3387 78.8611 52.1958L79.3706 49.9986ZM93.7061 33.1976H96.4659V35.2607C96.9841 34.5283 97.5824 33.9609 98.2617 33.5595C98.9401 33.1571 99.6812 32.9564 100.485 32.9564C100.736 32.9564 100.964 32.9699 101.169 32.9969C101.374 33.023 101.566 33.0548 101.745 33.0905L101.397 35.6091C101.218 35.5734 101.03 35.5425 100.834 35.5155C100.637 35.4884 100.432 35.4749 100.218 35.4749C99.7892 35.4749 99.3598 35.5463 98.9314 35.6892C98.5029 35.8329 98.0919 36.0645 97.6991 36.3859C97.3238 36.7255 97.0294 37.1096 96.8143 37.539C96.6 37.9674 96.4929 38.4673 96.4929 39.0395V47.1047H93.7061V33.1976ZM103.861 33.1976H106.675V47.1047H103.861V33.1976ZM103.808 27.9453H106.675V30.8122H103.808V27.9453ZM112.115 43.1657C112.115 43.8084 112.312 44.3227 112.704 44.7067C113.097 45.0908 113.731 45.2828 114.607 45.2828C115.821 45.2828 116.803 44.9789 117.554 44.3719C118.305 43.764 118.68 42.8801 118.68 41.7192V40.3258L116.536 40.4059C115.393 40.4416 114.499 40.5709 113.856 40.7938C113.213 41.0177 112.762 41.3265 112.504 41.7192C112.244 42.112 112.115 42.5944 112.115 43.1657ZM109.328 43.2728C109.328 42.3445 109.525 41.5803 109.918 40.982C110.31 40.3837 110.842 39.9147 111.512 39.5751C112.181 39.2364 112.936 38.9903 113.776 38.8378C114.616 38.6863 115.481 38.5927 116.375 38.557L118.68 38.476V37.9404C118.68 36.851 118.448 36.0693 117.983 35.5956C117.519 35.1227 116.768 34.8853 115.732 34.8853C114.732 34.8853 113.991 35.0561 113.508 35.3948C113.026 35.7345 112.713 36.2083 112.57 36.8153L110.025 36.547C110.275 35.2433 110.886 34.2871 111.86 33.6801C112.834 33.0731 114.159 32.7692 115.84 32.7692C117.858 32.7692 119.291 33.2381 120.14 34.1751C120.989 35.1131 121.413 36.4399 121.413 38.1546V47.1047H118.733V45.3099C118.215 45.8985 117.581 46.3993 116.831 46.8104C116.081 47.2205 115.16 47.426 114.071 47.426C112.66 47.426 111.516 47.0777 110.641 46.381C109.766 45.6843 109.328 44.6488 109.328 43.2728ZM124.816 33.1976H127.575V35.2076C128.273 34.3324 129.018 33.7071 129.813 33.3317C130.608 32.9564 131.434 32.7692 132.292 32.7692C133.846 32.7692 135.008 33.2024 135.776 34.068C136.544 34.9355 136.928 36.19 136.928 37.8333V47.1047H134.141V38.3698C134.141 37.208 133.927 36.382 133.497 35.8908C133.069 35.3997 132.417 35.1536 131.541 35.1536C131.059 35.1536 130.581 35.2433 130.108 35.4219C129.635 35.6004 129.201 35.8686 128.809 36.2257C128.415 36.5653 128.116 36.9407 127.91 37.3508C127.705 37.7619 127.602 38.2801 127.602 38.9054V47.1047H124.816V33.1976ZM151.451 33.8673C151.451 33.0818 151.325 32.4382 151.075 31.9383C150.825 31.4385 150.383 31.0631 149.749 30.8122C149.114 30.5633 148.235 30.4378 147.11 30.4378H143.52V37.4579H147.136C148.298 37.4579 149.187 37.3151 149.802 37.0295C150.419 36.7439 150.847 36.328 151.089 35.7837C151.33 35.2385 151.451 34.5997 151.451 33.8673ZM140.599 27.9723H147.163C149.039 27.9723 150.499 28.2319 151.544 28.7491C152.589 29.2673 153.318 29.964 153.729 30.8392C154.139 31.7154 154.344 32.6978 154.344 33.7872C154.344 34.9307 154.13 35.9671 153.702 36.8954C153.272 37.8246 152.54 38.5609 151.505 39.1061C150.468 39.6513 149.021 39.9234 147.163 39.9234H143.52V47.1047H140.599V27.9723ZM157.131 42.442V33.1976H159.945V41.9334C159.945 43.0943 160.141 43.9203 160.535 44.4115C160.927 44.9036 161.553 45.1487 162.41 45.1487C163.392 45.1487 164.259 44.8004 165.009 44.1036C165.402 43.7466 165.701 43.3664 165.907 42.965C166.112 42.5626 166.215 42.0492 166.215 41.4239V33.1976H169.028V47.1047H166.269V45.0416C165.608 45.8994 164.893 46.5286 164.125 46.931C163.356 47.3324 162.526 47.5331 161.633 47.5331C160.079 47.5331 158.94 47.1047 158.217 46.2468C157.493 45.3899 157.131 44.122 157.131 42.442ZM172.485 33.1976H175.245V35.2607C175.763 34.5283 176.361 33.9609 177.04 33.5595C177.719 33.1571 178.46 32.9564 179.264 32.9564C179.515 32.9564 179.742 32.9699 179.948 32.9969C180.152 33.023 180.344 33.0548 180.524 33.0905L180.176 35.6091C179.997 35.5734 179.809 35.5425 179.613 35.5155C179.416 35.4884 179.211 35.4749 178.996 35.4749C178.568 35.4749 178.139 35.5463 177.71 35.6892C177.282 35.8329 176.871 36.0645 176.478 36.3859C176.103 36.7255 175.808 37.1096 175.593 37.539C175.379 37.9674 175.272 38.4673 175.272 39.0395V47.1047H172.485V33.1976ZM192.823 40.1106C192.823 38.8427 192.653 37.842 192.314 37.1096C191.974 36.3772 191.537 35.8551 191.001 35.5425C190.465 35.2298 189.893 35.0735 189.286 35.0735C188.017 35.0735 187.053 35.502 186.392 36.3598C185.731 37.2167 185.401 38.3158 185.401 39.6552V40.513C185.401 41.9778 185.709 43.13 186.324 43.9695C186.941 44.809 187.874 45.2288 189.126 45.2288C190.197 45.2288 191.082 44.8361 191.778 44.0496C192.475 43.2641 192.823 41.9508 192.823 40.1106ZM182.614 33.1976H185.347V35.1005C185.901 34.3498 186.553 33.7737 187.303 33.3713C188.054 32.9699 188.919 32.7692 189.902 32.7692C191.206 32.7692 192.291 33.0731 193.157 33.6801C194.024 34.2871 194.671 35.1362 195.101 36.2257C195.529 37.3151 195.743 38.5831 195.743 40.0305C195.743 42.3532 195.199 44.1837 194.11 45.5241C193.019 46.8634 191.527 47.5331 189.634 47.5331C188.866 47.5331 188.111 47.3768 187.37 47.0642C186.628 46.7525 185.972 46.2111 185.401 45.443V52.3029H182.614V33.1976ZM198.798 27.9723H201.612V47.1047H198.798V27.9723ZM208.016 36.8423C207.749 37.4492 207.578 38.146 207.507 38.9324H214.796C214.724 37.6104 214.442 36.601 213.951 35.9043C213.46 35.2076 212.571 34.8593 211.285 34.8593C210.428 34.8593 209.735 35.0378 209.209 35.3948C208.682 35.7528 208.284 36.2344 208.016 36.8423ZM204.666 40.2718C204.666 38.6641 204.948 37.3016 205.511 36.1851C206.073 35.0687 206.855 34.2205 207.856 33.6396C208.855 33.0596 210.008 32.7692 211.312 32.7692C212.741 32.7692 213.916 33.0596 214.835 33.6396C215.756 34.2205 216.439 35.0243 216.886 36.051C217.332 37.0787 217.555 38.2617 217.555 39.6021V40.8343H207.48C207.552 42.2635 207.904 43.3761 208.539 44.1702C209.173 44.9654 210.097 45.3629 211.312 45.3629C212.366 45.3629 213.147 45.1622 213.657 44.7598C214.166 44.3584 214.51 43.8093 214.689 43.1117H217.341C217.109 44.4877 216.497 45.5685 215.506 46.3549C214.514 47.1404 213.117 47.5331 211.312 47.5331C209.186 47.5331 207.547 46.8905 206.395 45.6042C205.243 44.3179 204.666 42.5404 204.666 40.2718ZM219.94 43.5941H222.968V47.1047H219.94V43.5941ZM228.246 43.1657C228.246 43.8084 228.443 44.3227 228.836 44.7067C229.229 45.0908 229.864 45.2828 230.739 45.2828C231.954 45.2828 232.936 44.9789 233.687 44.3719C234.437 43.764 234.812 42.8801 234.812 41.7192V40.3258L232.668 40.4059C231.524 40.4416 230.632 40.5709 229.988 40.7938C229.345 41.0177 228.894 41.3265 228.635 41.7192C228.376 42.112 228.246 42.5944 228.246 43.1657ZM225.459 43.2728C225.459 42.3445 225.656 41.5803 226.049 40.982C226.442 40.3837 226.974 39.9147 227.644 39.5751C228.314 39.2364 229.068 38.9903 229.908 38.8378C230.747 38.6863 231.614 38.5927 232.508 38.557L234.812 38.476V37.9404C234.812 36.851 234.579 36.0693 234.115 35.5956C233.65 35.1227 232.9 34.8853 231.864 34.8853C230.863 34.8853 230.122 35.0561 229.641 35.3948C229.158 35.7345 228.845 36.2083 228.702 36.8153L226.156 36.547C226.406 35.2433 227.018 34.2871 227.992 33.6801C228.965 33.0731 230.292 32.7692 231.971 32.7692C233.99 32.7692 235.424 33.2381 236.272 34.1751C237.12 35.1131 237.545 36.4399 237.545 38.1546V47.1047H234.865V45.3099C234.347 45.8985 233.713 46.3993 232.963 46.8104C232.212 47.2205 231.293 47.426 230.202 47.426C228.792 47.426 227.648 47.0777 226.773 46.381C225.898 45.6843 225.459 44.6488 225.459 43.2728ZM240.974 33.1976H243.788V47.1047H240.974V33.1976ZM240.921 27.9453H243.788V30.8122H240.921V27.9453Z" fill="#2B2B2B"/>
<defs>
<linearGradient id="paint0_linear_1347_3150" x1="15.4974" y1="10.3008" x2="45.8931" y2="62.9476" gradientUnits="userSpaceOnUse">
<stop stop-color="#FF4E00"/>
<stop offset="0.0625" stop-color="#FF4E00"/>
<stop offset="0.0664062" stop-color="#FD4D01"/>
<stop offset="0.0703125" stop-color="#FC4D02"/>
<stop offset="0.0742188" stop-color="#FB4C02"/>
<stop offset="0.078125" stop-color="#FA4C03"/>
<stop offset="0.0820312" stop-color="#F94B04"/>
<stop offset="0.0859375" stop-color="#F84B04"/>
<stop offset="0.0898438" stop-color="#F74A05"/>
<stop offset="0.09375" stop-color="#F64A05"/>
<stop offset="0.0976562" stop-color="#F54A06"/>
<stop offset="0.101562" stop-color="#F44907"/>
<stop offset="0.105469" stop-color="#F34907"/>
<stop offset="0.109375" stop-color="#F24808"/>
<stop offset="0.113281" stop-color="#F14808"/>
<stop offset="0.117188" stop-color="#F04709"/>
<stop offset="0.121094" stop-color="#EF470A"/>
<stop offset="0.125" stop-color="#EE460A"/>
<stop offset="0.128906" stop-color="#ED460B"/>
<stop offset="0.132812" stop-color="#EC450B"/>
<stop offset="0.136719" stop-color="#EB450C"/>
<stop offset="0.140625" stop-color="#EA450D"/>
<stop offset="0.144531" stop-color="#E9440D"/>
<stop offset="0.148438" stop-color="#E8440E"/>
<stop offset="0.152344" stop-color="#E7430E"/>
<stop offset="0.15625" stop-color="#E6430F"/>
<stop offset="0.160156" stop-color="#E5420F"/>
<stop offset="0.164062" stop-color="#E44210"/>
<stop offset="0.167969" stop-color="#E34111"/>
<stop offset="0.171875" stop-color="#E24111"/>
<stop offset="0.175781" stop-color="#E14112"/>
<stop offset="0.179688" stop-color="#E04012"/>
<stop offset="0.183594" stop-color="#DF4013"/>
<stop offset="0.1875" stop-color="#DE3F14"/>
<stop offset="0.191406" stop-color="#DD3F14"/>
<stop offset="0.195312" stop-color="#DC3E15"/>
<stop offset="0.199219" stop-color="#DB3E15"/>
<stop offset="0.203125" stop-color="#DA3E16"/>
<stop offset="0.207031" stop-color="#D93D17"/>
<stop offset="0.210938" stop-color="#D83D17"/>
<stop offset="0.214844" stop-color="#D73C18"/>
<stop offset="0.21875" stop-color="#D63C18"/>
<stop offset="0.222656" stop-color="#D53B19"/>
<stop offset="0.226562" stop-color="#D43B19"/>
<stop offset="0.230469" stop-color="#D33A1A"/>
<stop offset="0.234375" stop-color="#D23A1B"/>
<stop offset="0.238281" stop-color="#D13A1B"/>
<stop offset="0.242187" stop-color="#D0391C"/>
<stop offset="0.246094" stop-color="#CF391C"/>
<stop offset="0.25" stop-color="#CE381D"/>
<stop offset="0.253906" stop-color="#CD381D"/>
<stop offset="0.257812" stop-color="#CC371E"/>
<stop offset="0.261719" stop-color="#CB371F"/>
<stop offset="0.265625" stop-color="#CA371F"/>
<stop offset="0.269531" stop-color="#C93620"/>
<stop offset="0.273437" stop-color="#C83620"/>
<stop offset="0.277344" stop-color="#C73521"/>
<stop offset="0.28125" stop-color="#C63521"/>
<stop offset="0.285156" stop-color="#C53422"/>
<stop offset="0.289062" stop-color="#C43423"/>
<stop offset="0.292969" stop-color="#C33423"/>
<stop offset="0.296875" stop-color="#C23324"/>
<stop offset="0.300781" stop-color="#C13324"/>
<stop offset="0.304688" stop-color="#C03225"/>
<stop offset="0.308594" stop-color="#BF3225"/>
<stop offset="0.3125" stop-color="#BE3126"/>
<stop offset="0.316406" stop-color="#BD3127"/>
<stop offset="0.320312" stop-color="#BC3127"/>
<stop offset="0.324219" stop-color="#BB3028"/>
<stop offset="0.328125" stop-color="#BA3028"/>
<stop offset="0.332031" stop-color="#B92F29"/>
<stop offset="0.335938" stop-color="#B82F29"/>
<stop offset="0.339844" stop-color="#B72F2A"/>
<stop offset="0.34375" stop-color="#B62E2B"/>
<stop offset="0.347656" stop-color="#B52E2B"/>
<stop offset="0.351563" stop-color="#B52D2C"/>
<stop offset="0.355469" stop-color="#B42D2C"/>
<stop offset="0.359375" stop-color="#B32C2D"/>
<stop offset="0.363281" stop-color="#B22C2D"/>
<stop offset="0.367188" stop-color="#B12C2E"/>
<stop offset="0.371094" stop-color="#B02B2E"/>
<stop offset="0.375" stop-color="#AF2B2F"/>
<stop offset="0.378906" stop-color="#AE2A30"/>
<stop offset="0.382812" stop-color="#AD2A30"/>
<stop offset="0.386719" stop-color="#AC2A31"/>
<stop offset="0.390625" stop-color="#AB2931"/>
<stop offset="0.394531" stop-color="#AA2932"/>
<stop offset="0.398437" stop-color="#A92832"/>
<stop offset="0.402344" stop-color="#A82833"/>
<stop offset="0.40625" stop-color="#A72733"/>
<stop offset="0.410156" stop-color="#A62734"/>
<stop offset="0.414062" stop-color="#A52734"/>
<stop offset="0.417969" stop-color="#A52635"/>
<stop offset="0.421875" stop-color="#A42636"/>
<stop offset="0.425781" stop-color="#A32536"/>
<stop offset="0.429688" stop-color="#A22537"/>
<stop offset="0.433594" stop-color="#A12537"/>
<stop offset="0.4375" stop-color="#A02438"/>
<stop offset="0.441406" stop-color="#9F2438"/>
<stop offset="0.445312" stop-color="#9E2339"/>
<stop offset="0.449219" stop-color="#9D2339"/>
<stop offset="0.453125" stop-color="#9C233A"/>
<stop offset="0.457031" stop-color="#9B223A"/>
<stop offset="0.460938" stop-color="#9A223B"/>
<stop offset="0.464844" stop-color="#9A213B"/>
<stop offset="0.46875" stop-color="#99213C"/>
<stop offset="0.472656" stop-color="#98213C"/>
<stop offset="0.476563" stop-color="#97203D"/>
<stop offset="0.480469" stop-color="#96203E"/>
<stop offset="0.484375" stop-color="#951F3E"/>
<stop offset="0.488281" stop-color="#941F3F"/>
<stop offset="0.492188" stop-color="#931F3F"/>
<stop offset="0.496094" stop-color="#921E40"/>
<stop offset="0.5" stop-color="#911E40"/>
<stop offset="0.503906" stop-color="#911D41"/>
<stop offset="0.507812" stop-color="#901D41"/>
<stop offset="0.511719" stop-color="#8F1D42"/>
<stop offset="0.515625" stop-color="#8E1C42"/>
<stop offset="0.519531" stop-color="#8D1C43"/>
<stop offset="0.523438" stop-color="#8C1C43"/>
<stop offset="0.527344" stop-color="#8B1B44"/>
<stop offset="0.53125" stop-color="#8A1B44"/>
<stop offset="0.535156" stop-color="#8A1A45"/>
<stop offset="0.539062" stop-color="#891A45"/>
<stop offset="0.542969" stop-color="#881A46"/>
<stop offset="0.546875" stop-color="#871946"/>
<stop offset="0.550781" stop-color="#861947"/>
<stop offset="0.554687" stop-color="#851947"/>
<stop offset="0.558594" stop-color="#841848"/>
<stop offset="0.5625" stop-color="#841848"/>
<stop offset="0.566406" stop-color="#831749"/>
<stop offset="0.570312" stop-color="#821749"/>
<stop offset="0.574219" stop-color="#81174A"/>
<stop offset="0.578125" stop-color="#80164A"/>
<stop offset="0.582031" stop-color="#7F164B"/>
<stop offset="0.585938" stop-color="#7F164B"/>
<stop offset="0.589844" stop-color="#7E154C"/>
<stop offset="0.59375" stop-color="#7D154C"/>
<stop offset="0.597656" stop-color="#7C144D"/>
<stop offset="0.601562" stop-color="#7B144D"/>
<stop offset="0.605469" stop-color="#7A144E"/>
<stop offset="0.609375" stop-color="#7A134E"/>
<stop offset="0.613281" stop-color="#79134F"/>
<stop offset="0.617188" stop-color="#78134F"/>
<stop offset="0.621094" stop-color="#771250"/>
<stop offset="0.625" stop-color="#761250"/>
<stop offset="0.628906" stop-color="#761251"/>
<stop offset="0.632812" stop-color="#751151"/>
<stop offset="0.636719" stop-color="#741151"/>
<stop offset="0.640625" stop-color="#731152"/>
<stop offset="0.644531" stop-color="#721052"/>
<stop offset="0.648438" stop-color="#721053"/>
<stop offset="0.652344" stop-color="#711053"/>
<stop offset="0.65625" stop-color="#700F54"/>
<stop offset="0.660156" stop-color="#6F0F54"/>
<stop offset="0.664062" stop-color="#6F0F55"/>
<stop offset="0.667969" stop-color="#6E0E55"/>
<stop offset="0.671875" stop-color="#6D0E56"/>
<stop offset="0.675781" stop-color="#6C0E56"/>
<stop offset="0.679688" stop-color="#6C0D56"/>
<stop offset="0.683594" stop-color="#6B0D57"/>
<stop offset="0.6875" stop-color="#6A0D57"/>
<stop offset="0.691406" stop-color="#690C58"/>
<stop offset="0.695313" stop-color="#690C58"/>
<stop offset="0.699219" stop-color="#680C58"/>
<stop offset="0.703125" stop-color="#670B59"/>
<stop offset="0.707031" stop-color="#670B59"/>
<stop offset="0.710938" stop-color="#660B5A"/>
<stop offset="0.714844" stop-color="#650A5A"/>
<stop offset="0.71875" stop-color="#650A5A"/>
<stop offset="0.722656" stop-color="#640A5B"/>
<stop offset="0.726562" stop-color="#640A5B"/>
<stop offset="0.730469" stop-color="#63095B"/>
<stop offset="0.734375" stop-color="#62095C"/>
<stop offset="0.75" stop-color="#62095C"/>
<stop offset="1" stop-color="#62095C"/>
</linearGradient>
</defs>
</svg>
