<svg width="176" height="43" viewBox="0 0 176 43" fill="none" xmlns="http://www.w3.org/2000/svg">
<path d="M23.568 12.1932C23.568 14.0866 23.0738 15.7842 22.0817 17.2859C21.0896 18.7875 19.7512 19.9773 18.0629 20.8587C19.3941 22.6215 20.6676 24.2792 21.8869 25.828C23.1026 27.3805 24.0045 28.6282 24.5889 29.5749C24.2967 30.6196 23.752 31.4103 22.9583 31.9508C22.1611 32.4876 21.2953 32.7597 20.3537 32.7597C19.1199 32.7597 18.1784 32.4912 17.529 31.9508C16.8796 31.4103 16.2628 30.6704 15.6783 29.7237L11.003 22.4293H7.64436V32.27C7.28722 32.3679 6.78216 32.4586 6.13641 32.5384C5.48705 32.6182 4.80523 32.6617 4.09094 32.6617C2.56495 32.6617 1.50073 32.4006 0.901883 31.8782C0.299425 31.3559 0 30.4092 0 29.0381V5.2906C0 4.6377 0.169553 4.13351 0.512269 3.77442C0.851377 3.41532 1.34921 3.13965 1.99857 2.94378C3.03754 2.55204 4.28575 2.27637 5.7468 2.11314C7.20785 1.94992 8.73383 1.87012 10.3248 1.87012C14.7404 1.87012 18.0521 2.79144 20.2599 4.6377C22.4641 6.47308 23.568 8.994 23.568 12.1932ZM10.5665 16.5024C12.1249 16.5024 13.3912 16.1505 14.3652 15.4505C15.3392 14.7504 15.8262 13.6804 15.8262 12.244C15.8262 9.43653 13.9575 8.03279 10.2274 8.03279C9.70787 8.03279 9.23528 8.05818 8.81681 8.10534C8.39473 8.15612 7.97264 8.21053 7.55056 8.27582V16.5024H10.5665V16.5024Z" fill="url(#paint0_linear_45_33)"/>
<path d="M34.4333 23.654C34.8879 25.0251 35.6815 25.9972 36.8179 26.5667C37.9543 27.1398 39.2674 27.4227 40.7609 27.4227C42.1246 27.4227 43.4052 27.2341 44.6066 26.8605C45.8079 26.4869 46.7819 26.0698 47.5287 25.6127C48.0157 25.9392 48.4197 26.3636 48.7444 26.8859C49.0691 27.4082 49.2314 27.9813 49.2314 28.598C49.2314 29.3488 49.0041 30.0017 48.5496 30.5567C48.095 31.1116 47.4709 31.5759 46.6737 31.9531C45.8764 32.3267 44.9348 32.6061 43.849 32.7838C42.7595 32.9615 41.569 33.0522 40.2703 33.0522C38.3547 33.0522 36.587 32.7838 34.9636 32.2433C33.3402 31.7065 31.9441 30.9049 30.7753 29.8457C29.6064 28.7866 28.6901 27.4554 28.0227 25.8558C27.3553 24.2562 27.0234 22.3809 27.0234 20.2263C27.0234 18.137 27.3553 16.327 28.0227 14.7927C28.6865 13.2584 29.5812 11.9852 30.6995 10.9732C31.8178 9.96122 33.1021 9.21764 34.5451 8.7461C35.9882 8.27456 37.4745 8.03516 39.0004 8.03516C40.6563 8.03516 42.1751 8.28907 43.5531 8.79326C44.9312 9.30107 46.1181 10.0084 47.1066 10.9224C48.095 11.8365 48.867 12.9283 49.419 14.2015C49.971 15.4746 50.2451 16.8638 50.2451 18.3619C50.2451 19.4065 49.9673 20.19 49.419 20.7123C48.867 21.2347 48.0878 21.5793 47.0813 21.7388L34.4333 23.654ZM39.0582 13.5667C37.6621 13.5667 36.5004 13.9983 35.5769 14.8652C34.6534 15.7322 34.1086 16.9799 33.9463 18.6122L43.2465 17.096C43.1816 16.2472 42.81 15.4492 42.1282 14.6984C41.4464 13.9439 40.4218 13.5667 39.0582 13.5667Z" fill="url(#paint1_linear_45_33)"/>
<path d="M58.9211 32.6633C57.4601 32.6633 56.4139 32.4275 55.779 31.9523C55.1477 31.4808 54.8302 30.5558 54.8302 29.1847V0.442523C55.1549 0.344588 55.6166 0.246653 56.2191 0.148718C56.818 0.0507826 57.4781 0 58.1924 0C59.621 0 60.66 0.246654 61.3093 0.732703C61.9587 1.22238 62.2834 2.15458 62.2834 3.52205V32.2643C61.9262 32.3622 61.4572 32.4529 60.8728 32.5327C60.2848 32.6197 59.6354 32.6633 58.9211 32.6633Z" fill="url(#paint2_linear_45_33)"/>
<path d="M82.7367 30.4116C82.0873 30.7054 81.355 30.9412 80.5469 31.1225C79.7352 31.3039 78.8081 31.3909 77.7727 31.3909C76.3117 31.3909 74.9228 31.1878 73.6096 30.7779C72.2965 30.3717 71.1493 29.7079 70.1752 28.7938C69.2012 27.8798 68.422 26.69 67.8376 25.221C67.2531 23.752 66.9609 21.9565 66.9609 19.8346C66.9609 17.9085 67.2531 16.211 67.8376 14.7419C68.422 13.2729 69.2589 12.0396 70.3448 11.0458C71.4307 10.0519 72.7294 9.30107 74.2409 8.79326C75.7489 8.28907 77.43 8.03516 79.2807 8.03516C81.0989 8.03516 82.7619 8.27093 84.2735 8.7461C85.7814 9.22127 86.9611 9.73271 87.8053 10.2877C88.4221 10.7121 88.9092 11.1945 89.2663 11.7313C89.6235 12.2681 89.8038 12.9464 89.8038 13.7626V32.2216C89.8038 33.9191 89.4936 35.3881 88.8767 36.6287C88.2598 37.8692 87.4084 38.8884 86.3189 39.69C85.2295 40.488 83.956 41.0865 82.495 41.4783C81.0339 41.87 79.4574 42.0659 77.7727 42.0659C76.0194 42.0659 74.5007 41.9172 73.22 41.6234C71.9357 41.3296 70.922 40.9523 70.1752 40.4989C69.0713 39.7154 68.5194 38.6708 68.5194 37.365C68.5194 36.6794 68.6673 36.0519 68.9559 35.4788C69.2481 34.9057 69.5728 34.4922 69.9299 34.231C70.839 34.7534 71.8852 35.2032 73.0721 35.5768C74.2554 35.9504 75.5144 36.139 76.8456 36.139C78.6638 36.139 80.0996 35.8198 81.1566 35.185C82.21 34.5502 82.7403 33.4947 82.7403 32.0257V30.4116H82.7367ZM79.0822 25.7578C79.8615 25.7578 80.5361 25.6599 81.1025 25.464C81.6688 25.2682 82.1811 25.007 82.6357 24.6805V14.644C82.246 14.4808 81.8168 14.3175 81.3442 14.1543C80.8716 13.9911 80.2799 13.9113 79.5656 13.9113C78.0072 13.9113 76.7482 14.3937 75.7922 15.3549C74.8326 16.3198 74.3564 17.8287 74.3564 19.8853C74.3564 20.9953 74.479 21.9275 74.7207 22.6747C74.9624 23.4255 75.2979 24.0313 75.72 24.4847C76.1421 24.9417 76.6363 25.2682 77.2063 25.464C77.7763 25.6599 78.4004 25.7578 79.0822 25.7578Z" fill="url(#paint3_linear_45_33)"/>
<path d="M102.752 32.2704C102.428 32.3683 101.973 32.459 101.389 32.5388C100.804 32.6186 100.155 32.6621 99.4406 32.6621C97.9795 32.6621 96.9261 32.4264 96.2768 31.9512C95.6274 31.4796 95.3027 30.5547 95.3027 29.1836V14.2503C95.3027 13.3362 95.53 12.5527 95.9846 11.8998C96.4391 11.2469 97.0704 10.6775 97.8821 10.1878C98.9536 9.53487 100.245 9.01981 101.753 8.6462C103.261 8.2726 104.845 8.08398 106.501 8.08398C109.877 8.08398 111.565 9.22657 111.565 11.5117C111.565 12.0667 111.483 12.5745 111.324 13.0315C111.161 13.4886 110.981 13.8803 110.786 14.2068C110.039 14.0435 109.13 13.9601 108.059 13.9601C107.117 13.9601 106.176 14.0762 105.234 14.3047C104.293 14.5332 103.463 14.8415 102.752 15.2333V32.2704V32.2704Z" fill="url(#paint4_linear_45_33)"/>
<path d="M138.009 20.5201C138.009 22.4462 137.717 24.1836 137.132 25.7361C136.548 27.2885 135.711 28.6016 134.625 29.6789C133.536 30.7562 132.23 31.5868 130.704 32.1744C129.178 32.762 127.471 33.0558 125.592 33.0558C123.709 33.0558 121.995 32.7693 120.455 32.1998C118.911 31.6303 117.598 30.8033 116.512 29.726C115.422 28.6487 114.589 27.3357 114.005 25.7832C113.42 24.2344 113.128 22.4788 113.128 20.5201C113.128 18.6267 113.427 16.9038 114.03 15.3549C114.629 13.8061 115.473 12.4894 116.562 11.4121C117.648 10.3348 118.965 9.50419 120.505 8.91658C122.046 8.32897 123.745 8.03516 125.596 8.03516C127.446 8.03516 129.135 8.32897 130.661 8.91658C132.187 9.50419 133.492 10.3457 134.582 11.4375C135.668 12.5329 136.512 13.846 137.114 15.3803C137.71 16.9146 138.009 18.6267 138.009 20.5201ZM125.592 13.9113C124.066 13.9113 122.879 14.4844 122.039 15.6233C121.194 16.7659 120.772 18.3982 120.772 20.5201C120.772 22.7073 121.187 24.365 122.013 25.4894C122.839 26.6139 124.033 27.1797 125.592 27.1797C127.15 27.1797 128.345 26.6102 129.171 25.4676C129.997 24.3251 130.412 22.6783 130.412 20.5237C130.412 18.4344 129.99 16.8094 129.145 15.6523C128.301 14.4916 127.118 13.9113 125.592 13.9113Z" fill="url(#paint5_linear_45_33)"/>
<path d="M158.607 18.3166C158.315 19.5244 157.99 20.7649 157.633 22.0381C157.276 23.3113 156.919 24.5518 156.562 25.7596C156.205 26.9675 155.862 28.0774 155.541 29.0894C155.216 30.1014 154.957 30.9321 154.762 31.585C153.885 32.3685 152.489 32.7602 150.573 32.7602C149.405 32.7602 148.38 32.597 147.507 32.2705C146.63 31.9441 146.046 31.4544 145.754 30.8015C145.397 30.018 144.975 28.7775 144.487 27.08C144 25.3824 143.521 23.5216 143.052 21.4976C142.579 19.4736 142.135 17.417 141.713 15.3277C141.291 13.2384 140.949 11.4103 140.692 9.84334C141.082 9.41895 141.627 9.0526 142.323 8.74065C143.019 8.43234 143.777 8.27637 144.589 8.27637C145.627 8.27637 146.472 8.51213 147.121 8.9873C147.77 9.46247 148.174 10.2677 148.34 11.4103C148.665 13.6955 148.95 15.6542 149.192 17.2864C149.433 18.9187 149.653 20.3079 149.848 21.4469C150.043 22.5894 150.213 23.5108 150.361 24.2144C150.505 24.9181 150.613 25.4622 150.678 25.8539H150.873C151.003 25.3316 151.198 24.5481 151.457 23.5035C151.717 22.4589 152.024 21.2764 152.381 19.9524C152.738 18.6285 153.12 17.2103 153.524 15.6941C153.928 14.1779 154.329 12.6508 154.718 11.1165C155.27 10.79 155.848 10.5361 156.446 10.3584C157.049 10.1807 157.77 10.09 158.615 10.09C159.654 10.09 160.537 10.2605 161.27 10.6051C162.002 10.946 162.464 11.4611 162.659 12.1466C163.081 13.6157 163.485 15.0593 163.874 16.4812C164.264 17.903 164.621 19.2161 164.946 20.424C165.27 21.6318 165.555 22.7091 165.797 23.6558C166.039 24.6025 166.226 25.3389 166.356 25.8576H166.598C167.053 23.2786 167.489 20.5763 167.915 17.7543C168.337 14.9323 168.726 12.0668 169.084 9.16141C169.603 8.86761 170.155 8.64634 170.74 8.50125C171.324 8.35616 171.908 8.28 172.493 8.28C173.499 8.28 174.336 8.50125 175 8.94015C175.664 9.37904 175.999 10.1408 175.999 11.218C175.999 11.7077 175.909 12.4767 175.732 13.5177C175.552 14.5624 175.325 15.7376 175.051 17.0434C174.773 18.3492 174.459 19.7275 174.102 21.1821C173.745 22.6366 173.387 24.0294 173.03 25.3679C172.673 26.7063 172.323 27.9324 171.984 29.0387C171.641 30.1486 171.36 30.9974 171.133 31.585C170.776 31.9441 170.173 32.2306 169.329 32.441C168.485 32.6514 167.576 32.7602 166.602 32.7602C164.134 32.7602 162.688 32.1581 162.269 30.9502C162.042 30.2973 161.764 29.4993 161.443 28.5526C161.118 27.6059 160.786 26.5685 160.444 25.4441C160.105 24.3196 159.769 23.1444 159.444 21.9184C159.109 20.6888 158.835 19.4918 158.607 18.3166Z" fill="url(#paint6_linear_45_33)"/>
<defs>
<linearGradient id="paint0_linear_45_33" x1="180.202" y1="17.3107" x2="-1.99764" y2="17.3107" gradientUnits="userSpaceOnUse">
<stop stop-color="#006DB7"/>
<stop offset="0.3407" stop-color="#6354A4"/>
<stop offset="0.6152" stop-color="#AE2085"/>
<stop offset="1" stop-color="#D32161"/>
</linearGradient>
<linearGradient id="paint1_linear_45_33" x1="180.205" y1="20.5447" x2="-1.99462" y2="20.5447" gradientUnits="userSpaceOnUse">
<stop stop-color="#006DB7"/>
<stop offset="0.3407" stop-color="#6354A4"/>
<stop offset="0.6152" stop-color="#AE2085"/>
<stop offset="1" stop-color="#D32161"/>
</linearGradient>
<linearGradient id="paint2_linear_45_33" x1="180.197" y1="16.3329" x2="-2.00194" y2="16.3329" gradientUnits="userSpaceOnUse">
<stop stop-color="#006DB7"/>
<stop offset="0.3407" stop-color="#6354A4"/>
<stop offset="0.6152" stop-color="#AE2085"/>
<stop offset="1" stop-color="#D32161"/>
</linearGradient>
<linearGradient id="paint3_linear_45_33" x1="180.199" y1="25.0495" x2="-1.99969" y2="25.0495" gradientUnits="userSpaceOnUse">
<stop stop-color="#006DB7"/>
<stop offset="0.3407" stop-color="#6354A4"/>
<stop offset="0.6152" stop-color="#AE2085"/>
<stop offset="1" stop-color="#D32161"/>
</linearGradient>
<linearGradient id="paint4_linear_45_33" x1="180.201" y1="20.3714" x2="-1.99866" y2="20.3714" gradientUnits="userSpaceOnUse">
<stop stop-color="#006DB7"/>
<stop offset="0.3407" stop-color="#6354A4"/>
<stop offset="0.6152" stop-color="#AE2085"/>
<stop offset="1" stop-color="#D32161"/>
</linearGradient>
<linearGradient id="paint5_linear_45_33" x1="180.201" y1="20.5447" x2="-1.99838" y2="20.5447" gradientUnits="userSpaceOnUse">
<stop stop-color="#006DB7"/>
<stop offset="0.3407" stop-color="#6354A4"/>
<stop offset="0.6152" stop-color="#AE2085"/>
<stop offset="1" stop-color="#D32161"/>
</linearGradient>
<linearGradient id="paint6_linear_45_33" x1="180.2" y1="20.5184" x2="-1.99901" y2="20.5184" gradientUnits="userSpaceOnUse">
<stop stop-color="#006DB7"/>
<stop offset="0.3407" stop-color="#6354A4"/>
<stop offset="0.6152" stop-color="#AE2085"/>
<stop offset="1" stop-color="#D32161"/>
</linearGradient>
</defs>
</svg>
