<svg width="118" height="21" viewBox="0 0 118 21" fill="none" xmlns="http://www.w3.org/2000/svg">
<path d="M9.76 4.84C9.2 4.53333 8.62667 4.28 8.04 4.08C7.46667 3.88 6.92667 3.78 6.42 3.78C5.79333 3.78 5.3 3.90667 4.94 4.16C4.58 4.41333 4.4 4.79333 4.4 5.3C4.4 5.64667 4.53333 5.96 4.8 6.24C5.08 6.50667 5.43333 6.74667 5.86 6.96C6.3 7.17333 6.75333 7.36667 7.22 7.54C7.64667 7.7 8.06667 7.89333 8.48 8.12C8.90667 8.33333 9.28667 8.60667 9.62 8.94C9.95333 9.26 10.22 9.66667 10.42 10.16C10.62 10.64 10.72 11.2333 10.72 11.94C10.72 12.6867 10.5267 13.38 10.14 14.02C9.75333 14.66 9.18667 15.18 8.44 15.58C7.69333 15.9667 6.77333 16.16 5.68 16.16C5.12 16.16 4.54667 16.1067 3.96 16C3.38667 15.88 2.82 15.7067 2.26 15.48C1.7 15.24 1.16 14.94 0.64 14.58L1.92 12.32C2.26667 12.5733 2.64 12.8 3.04 13C3.45333 13.1867 3.86667 13.3333 4.28 13.44C4.69333 13.5467 5.07333 13.6 5.42 13.6C5.76667 13.6 6.11333 13.5533 6.46 13.46C6.82 13.3533 7.11333 13.18 7.34 12.94C7.58 12.7 7.7 12.3667 7.7 11.94C7.7 11.6467 7.6 11.38 7.4 11.14C7.21333 10.9 6.95333 10.68 6.62 10.48C6.3 10.28 5.94667 10.1067 5.56 9.96C5.10667 9.78667 4.64 9.58667 4.16 9.36C3.68 9.13333 3.22667 8.86 2.8 8.54C2.38667 8.20667 2.04667 7.8 1.78 7.32C1.52667 6.82667 1.4 6.22667 1.4 5.52C1.4 4.66667 1.58667 3.92667 1.96 3.3C2.34667 2.67333 2.88667 2.18 3.58 1.82C4.27333 1.44667 5.07333 1.24 5.98 1.2C7.16667 1.2 8.12667 1.34 8.86 1.62C9.60667 1.9 10.2733 2.23333 10.86 2.62L9.76 4.84ZM13.1002 16V0.219999H15.8402V9.02L15.8202 8.68C16.1268 8.13333 16.5602 7.69333 17.1202 7.36C17.6802 7.01333 18.3668 6.84 19.1802 6.84C20.0068 6.84 20.6935 7.08667 21.2402 7.58C21.8002 8.06 22.0868 8.68667 22.1002 9.46V16H19.3002V10.5C19.2868 10.1133 19.1802 9.80667 18.9802 9.58C18.7935 9.34 18.4735 9.22 18.0202 9.22C17.5935 9.22 17.2202 9.36 16.9002 9.64C16.5802 9.92 16.3335 10.3 16.1602 10.78C15.9868 11.26 15.9002 11.8133 15.9002 12.44V16H13.1002ZM28.6552 16.24C27.8418 16.24 27.1018 16.08 26.4352 15.76C25.7818 15.4267 25.2618 14.92 24.8752 14.24C24.4885 13.56 24.2952 12.6933 24.2952 11.64C24.2952 10.6533 24.4952 9.8 24.8952 9.08C25.2952 8.36 25.8218 7.80667 26.4752 7.42C27.1285 7.02 27.8218 6.82 28.5552 6.82C29.4218 6.82 30.0752 6.96667 30.5152 7.26C30.9685 7.54 31.3418 7.85333 31.6352 8.2L31.5152 8.54L31.7752 7.26H34.3752V16H31.5752V14.1L31.7952 14.7C31.7685 14.7 31.6885 14.78 31.5552 14.94C31.4218 15.0867 31.2218 15.2667 30.9552 15.48C30.7018 15.68 30.3818 15.8533 29.9952 16C29.6218 16.16 29.1752 16.24 28.6552 16.24ZM29.4552 13.96C29.7885 13.96 30.0885 13.9133 30.3552 13.82C30.6218 13.7133 30.8552 13.5667 31.0552 13.38C31.2552 13.18 31.4285 12.9333 31.5752 12.64V10.5C31.4685 10.2067 31.3085 9.96 31.0952 9.76C30.8818 9.54667 30.6285 9.38667 30.3352 9.28C30.0418 9.16 29.7152 9.1 29.3552 9.1C28.9552 9.1 28.5818 9.20667 28.2352 9.42C27.9018 9.62 27.6352 9.9 27.4352 10.26C27.2352 10.62 27.1352 11.0333 27.1352 11.5C27.1352 11.9667 27.2418 12.3867 27.4552 12.76C27.6685 13.1333 27.9485 13.4267 28.2952 13.64C28.6552 13.8533 29.0418 13.96 29.4552 13.96ZM38.1003 16V9.7H36.6203V7.22H38.1003V4.18C38.1003 3.03333 38.427 2.1 39.0803 1.38C39.747 0.646666 40.707 0.28 41.9603 0.28C42.3336 0.28 42.747 0.34 43.2003 0.46C43.667 0.566666 44.0736 0.746666 44.4203 0.999999L43.2403 3.02C43.107 2.84667 42.947 2.73333 42.7603 2.68C42.587 2.61333 42.4203 2.58 42.2603 2.58C41.8603 2.58 41.5336 2.71333 41.2803 2.98C41.027 3.24667 40.9003 3.67333 40.9003 4.26V7.22H43.5403V9.7H40.9003V16H38.1003ZM49.6658 16.24C48.5991 16.24 47.6924 16.04 46.9458 15.64C46.2124 15.24 45.6524 14.6867 45.2658 13.98C44.8791 13.2733 44.6858 12.46 44.6858 11.54C44.6858 10.66 44.9124 9.86667 45.3658 9.16C45.8191 8.45333 46.4258 7.89333 47.1858 7.48C47.9458 7.05333 48.7924 6.84 49.7258 6.84C50.9791 6.84 52.0058 7.20667 52.8058 7.94C53.6191 8.66 54.1458 9.70667 54.3858 11.08L47.5858 13.24L46.9658 11.72L51.8858 10.06L51.3058 10.32C51.1991 9.97333 51.0058 9.67333 50.7258 9.42C50.4591 9.15333 50.0524 9.02 49.5058 9.02C49.0924 9.02 48.7258 9.12 48.4058 9.32C48.0991 9.50667 47.8591 9.78 47.6858 10.14C47.5258 10.4867 47.4458 10.9 47.4458 11.38C47.4458 11.9267 47.5458 12.3867 47.7458 12.76C47.9458 13.12 48.2191 13.3933 48.5658 13.58C48.9124 13.7667 49.2991 13.86 49.7258 13.86C50.0324 13.86 50.3258 13.8067 50.6058 13.7C50.8991 13.5933 51.1858 13.4533 51.4658 13.28L52.7058 15.36C52.2391 15.6267 51.7324 15.84 51.1858 16C50.6524 16.16 50.1458 16.24 49.6658 16.24ZM60.7205 16.24C59.6538 16.24 58.7471 16.04 58.0005 15.64C57.2671 15.24 56.7071 14.6867 56.3205 13.98C55.9338 13.2733 55.7405 12.46 55.7405 11.54C55.7405 10.66 55.9671 9.86667 56.4205 9.16C56.8738 8.45333 57.4805 7.89333 58.2405 7.48C59.0005 7.05333 59.8471 6.84 60.7805 6.84C62.0338 6.84 63.0605 7.20667 63.8605 7.94C64.6738 8.66 65.2005 9.70667 65.4405 11.08L58.6405 13.24L58.0205 11.72L62.9405 10.06L62.3605 10.32C62.2538 9.97333 62.0605 9.67333 61.7805 9.42C61.5138 9.15333 61.1071 9.02 60.5605 9.02C60.1471 9.02 59.7805 9.12 59.4605 9.32C59.1538 9.50667 58.9138 9.78 58.7405 10.14C58.5805 10.4867 58.5005 10.9 58.5005 11.38C58.5005 11.9267 58.6005 12.3867 58.8005 12.76C59.0005 13.12 59.2738 13.3933 59.6205 13.58C59.9671 13.7667 60.3538 13.86 60.7805 13.86C61.0871 13.86 61.3805 13.8067 61.6605 13.7C61.9538 13.5933 62.2405 13.4533 62.5205 13.28L63.7605 15.36C63.2938 15.6267 62.7871 15.84 62.2405 16C61.7071 16.16 61.2005 16.24 60.7205 16.24ZM67.4752 0.219999H70.2752V16H67.4752V0.219999Z" fill="#45505B"/>
<path d="M78.4627 16L85.1027 0.699999H85.2627L91.9027 16H88.5427L84.3027 5.24L86.4027 3.8L81.3227 16H78.4627ZM83.0027 10.68H87.4227L88.4427 13.12H82.1027L83.0027 10.68ZM100.552 16V0.679999H100.572L108.752 12.28L107.512 12L115.672 0.679999H115.712V16H112.812V7.22L112.992 8.72L108.012 15.8H107.972L102.852 8.72L103.352 7.34V16H100.552Z" fill="#0563BB"/>
</svg>
